<svg width="40" height="40" viewBox="0 0 40 40" fill="none" xmlns="http://www.w3.org/2000/svg">
<g filter="url(#filter0_i_634_535)">
<path d="M8.47977 15.0638L8.92852 14.3438C9.77096 12.991 11.0984 12.0111 12.6393 11.6044C14.1802 11.1978 15.8183 11.3952 17.2185 12.1563L20.8185 14.1125L15.436 22.9625L13.6673 18.5375L8.27102 27.9363C8.06235 28.3006 7.78337 28.6197 7.4503 28.8753C7.11722 29.1308 6.73668 29.3176 6.3308 29.4249C5.92491 29.5321 5.50176 29.5576 5.08593 29.4999C4.6701 29.4422 4.26988 29.3025 3.90852 29.0888L3.76352 29.0025C3.40292 28.7895 3.08814 28.5071 2.83736 28.1716C2.58658 27.8362 2.40479 27.4544 2.3025 27.0482C2.20021 26.6421 2.17945 26.2197 2.24142 25.8055C2.30338 25.3913 2.44685 24.9934 2.66352 24.635L7.18852 17.1525L7.18227 17.1475L7.53352 16.5838L8.26227 15.3788C8.32893 15.2679 8.40143 15.1629 8.47977 15.0638Z" fill="url(#paint0_linear_634_535)"/>
<path d="M8.47977 15.0638L8.92852 14.3438C9.77096 12.991 11.0984 12.0111 12.6393 11.6044C14.1802 11.1978 15.8183 11.3952 17.2185 12.1563L20.8185 14.1125L15.436 22.9625L13.6673 18.5375L8.27102 27.9363C8.06235 28.3006 7.78337 28.6197 7.4503 28.8753C7.11722 29.1308 6.73668 29.3176 6.3308 29.4249C5.92491 29.5321 5.50176 29.5576 5.08593 29.4999C4.6701 29.4422 4.26988 29.3025 3.90852 29.0888L3.76352 29.0025C3.40292 28.7895 3.08814 28.5071 2.83736 28.1716C2.58658 27.8362 2.40479 27.4544 2.3025 27.0482C2.20021 26.6421 2.17945 26.2197 2.24142 25.8055C2.30338 25.3913 2.44685 24.9934 2.66352 24.635L7.18852 17.1525L7.18227 17.1475L7.53352 16.5838L8.26227 15.3788C8.32893 15.2679 8.40143 15.1629 8.47977 15.0638Z" fill="url(#paint1_radial_634_535)"/>
</g>
<path d="M18.9662 33.8963L18.1274 31.7401L19.8174 29.2576H37.3549V34.9813C37.3549 35.6444 37.0916 36.2802 36.6227 36.7491C36.1539 37.2179 35.518 37.4813 34.8549 37.4813H24.2087C23.0753 37.4813 21.9683 37.1389 21.0328 36.499C20.0973 35.859 19.377 34.9514 18.9662 33.8951" fill="url(#paint2_linear_634_535)"/>
<path d="M18.9662 33.8963L18.1274 31.7401L19.8174 29.2576H37.3549V34.9813C37.3549 35.6444 37.0916 36.2802 36.6227 36.7491C36.1539 37.2179 35.518 37.4813 34.8549 37.4813H24.2087C23.0753 37.4813 21.9683 37.1389 21.0328 36.499C20.0973 35.859 19.377 34.9514 18.9662 33.8951" fill="url(#paint3_linear_634_535)"/>
<path d="M18.456 31.635C18.456 29.9671 17.1039 28.615 15.436 28.615C13.7681 28.615 12.416 29.9671 12.416 31.635V34.3262C12.416 35.9941 13.7681 37.3462 15.436 37.3462C17.1039 37.3462 18.456 35.9941 18.456 34.3262V31.635Z" fill="url(#paint4_radial_634_535)"/>
<path d="M18.456 31.635C18.456 29.9671 17.1039 28.615 15.436 28.615C13.7681 28.615 12.416 29.9671 12.416 31.635V34.3262C12.416 35.9941 13.7681 37.3462 15.436 37.3462C17.1039 37.3462 18.456 35.9941 18.456 34.3262V31.635Z" fill="url(#paint5_radial_634_535)"/>
<path d="M18.456 31.635C18.456 29.9671 17.1039 28.615 15.436 28.615C13.7681 28.615 12.416 29.9671 12.416 31.635V34.3262C12.416 35.9941 13.7681 37.3462 15.436 37.3462C17.1039 37.3462 18.456 35.9941 18.456 34.3262V31.635Z" fill="url(#paint6_radial_634_535)"/>
<path d="M22.6747 2.83252C22.7157 2.76117 22.7703 2.6986 22.8355 2.64841C22.9006 2.59822 22.9751 2.56138 23.0545 2.54001C23.1339 2.51864 23.2168 2.51317 23.2984 2.52389C23.3799 2.53462 23.4585 2.56134 23.5297 2.60252L27.2335 4.74002C27.3766 4.82268 27.4811 4.95864 27.5242 5.11817C27.5673 5.27769 27.5455 5.44779 27.4635 5.59127L10.5372 35.15C10.4758 35.2572 10.3841 35.3437 10.2735 35.3988L6.3035 37.3675C6.101 37.4675 5.931 37.3675 5.921 37.1425L5.6385 32.7163C5.63245 32.5971 5.66064 32.4787 5.71975 32.375L22.6747 2.83252Z" fill="url(#paint7_radial_634_535)"/>
<path d="M22.6747 2.83252C22.7157 2.76117 22.7703 2.6986 22.8355 2.64841C22.9006 2.59822 22.9751 2.56138 23.0545 2.54001C23.1339 2.51864 23.2168 2.51317 23.2984 2.52389C23.3799 2.53462 23.4585 2.56134 23.5297 2.60252L27.2335 4.74002C27.3766 4.82268 27.4811 4.95864 27.5242 5.11817C27.5673 5.27769 27.5455 5.44779 27.4635 5.59127L10.5372 35.15C10.4758 35.2572 10.3841 35.3437 10.2735 35.3988L6.3035 37.3675C6.101 37.4675 5.931 37.3675 5.921 37.1425L5.6385 32.7163C5.63245 32.5971 5.66064 32.4787 5.71975 32.375L22.6747 2.83252Z" fill="url(#paint8_radial_634_535)"/>
<g filter="url(#filter1_f_634_535)">
<path d="M21.5511 10.4775L10.2373 30.3988" stroke="#FF7150" stroke-width="0.5" stroke-linecap="round"/>
</g>
<g filter="url(#filter2_i_634_535)">
<path d="M12.4158 27.5376C10.852 28.6313 10.3495 30.8301 11.3683 32.4426C12.4133 34.0938 14.7108 34.5788 16.3745 33.5551L20.787 30.8376C20.9159 30.7579 21.0594 30.7048 21.2091 30.6813C21.3588 30.6579 21.5117 30.6646 21.6587 30.701C21.8058 30.7375 21.9441 30.8029 22.0655 30.8936C22.1869 30.9842 22.289 31.0982 22.3658 31.2288C23.1981 32.6355 24.4161 33.7742 25.8756 34.5099C27.3351 35.2456 28.9749 35.5476 30.6008 35.3801L35.3908 34.8876C35.9292 34.8319 36.4278 34.5786 36.7903 34.1766C37.1528 33.7746 37.3534 33.2526 37.3533 32.7113V23.7988C37.3504 23.1063 37.1429 22.43 36.7568 21.8551C36.3707 21.2802 35.8233 20.8322 35.1833 20.5676C32.3995 19.4076 27.3308 17.2063 22.3145 14.5863L16.3883 24.9363L12.4158 27.5376Z" fill="url(#paint9_linear_634_535)"/>
<path d="M12.4158 27.5376C10.852 28.6313 10.3495 30.8301 11.3683 32.4426C12.4133 34.0938 14.7108 34.5788 16.3745 33.5551L20.787 30.8376C20.9159 30.7579 21.0594 30.7048 21.2091 30.6813C21.3588 30.6579 21.5117 30.6646 21.6587 30.701C21.8058 30.7375 21.9441 30.8029 22.0655 30.8936C22.1869 30.9842 22.289 31.0982 22.3658 31.2288C23.1981 32.6355 24.4161 33.7742 25.8756 34.5099C27.3351 35.2456 28.9749 35.5476 30.6008 35.3801L35.3908 34.8876C35.9292 34.8319 36.4278 34.5786 36.7903 34.1766C37.1528 33.7746 37.3534 33.2526 37.3533 32.7113V23.7988C37.3504 23.1063 37.1429 22.43 36.7568 21.8551C36.3707 21.2802 35.8233 20.8322 35.1833 20.5676C32.3995 19.4076 27.3308 17.2063 22.3145 14.5863L16.3883 24.9363L12.4158 27.5376Z" fill="url(#paint10_radial_634_535)"/>
<path d="M12.4158 27.5376C10.852 28.6313 10.3495 30.8301 11.3683 32.4426C12.4133 34.0938 14.7108 34.5788 16.3745 33.5551L20.787 30.8376C20.9159 30.7579 21.0594 30.7048 21.2091 30.6813C21.3588 30.6579 21.5117 30.6646 21.6587 30.701C21.8058 30.7375 21.9441 30.8029 22.0655 30.8936C22.1869 30.9842 22.289 31.0982 22.3658 31.2288C23.1981 32.6355 24.4161 33.7742 25.8756 34.5099C27.3351 35.2456 28.9749 35.5476 30.6008 35.3801L35.3908 34.8876C35.9292 34.8319 36.4278 34.5786 36.7903 34.1766C37.1528 33.7746 37.3534 33.2526 37.3533 32.7113V23.7988C37.3504 23.1063 37.1429 22.43 36.7568 21.8551C36.3707 21.2802 35.8233 20.8322 35.1833 20.5676C32.3995 19.4076 27.3308 17.2063 22.3145 14.5863L16.3883 24.9363L12.4158 27.5376Z" fill="url(#paint11_radial_634_535)"/>
<path d="M12.4158 27.5376C10.852 28.6313 10.3495 30.8301 11.3683 32.4426C12.4133 34.0938 14.7108 34.5788 16.3745 33.5551L20.787 30.8376C20.9159 30.7579 21.0594 30.7048 21.2091 30.6813C21.3588 30.6579 21.5117 30.6646 21.6587 30.701C21.8058 30.7375 21.9441 30.8029 22.0655 30.8936C22.1869 30.9842 22.289 31.0982 22.3658 31.2288C23.1981 32.6355 24.4161 33.7742 25.8756 34.5099C27.3351 35.2456 28.9749 35.5476 30.6008 35.3801L35.3908 34.8876C35.9292 34.8319 36.4278 34.5786 36.7903 34.1766C37.1528 33.7746 37.3534 33.2526 37.3533 32.7113V23.7988C37.3504 23.1063 37.1429 22.43 36.7568 21.8551C36.3707 21.2802 35.8233 20.8322 35.1833 20.5676C32.3995 19.4076 27.3308 17.2063 22.3145 14.5863L16.3883 24.9363L12.4158 27.5376Z" fill="url(#paint12_linear_634_535)"/>
</g>
<path d="M12.4158 27.5376C10.852 28.6313 10.3495 30.8301 11.3683 32.4426C12.4133 34.0938 14.7108 34.5788 16.3745 33.5551L20.787 30.8376C20.9159 30.7579 21.0594 30.7048 21.2091 30.6813C21.3588 30.6579 21.5117 30.6646 21.6587 30.701C21.8058 30.7375 21.9441 30.8029 22.0655 30.8936C22.1869 30.9842 22.289 31.0982 22.3658 31.2288C23.1981 32.6355 24.4161 33.7742 25.8756 34.5099C27.3351 35.2456 28.9749 35.5476 30.6008 35.3801L35.3908 34.8876C35.9292 34.8319 36.4278 34.5786 36.7903 34.1766C37.1528 33.7746 37.3534 33.2526 37.3533 32.7113V23.7988C37.3504 23.1063 37.1429 22.43 36.7568 21.8551C36.3707 21.2802 35.8233 20.8322 35.1833 20.5676C32.3995 19.4076 27.3308 17.2063 22.3145 14.5863L16.3883 24.9363L12.4158 27.5376Z" fill="url(#paint13_linear_634_535)"/>
<path d="M12.4158 27.5376C10.852 28.6313 10.3495 30.8301 11.3683 32.4426C12.4133 34.0938 14.7108 34.5788 16.3745 33.5551L20.787 30.8376C20.9159 30.7579 21.0594 30.7048 21.2091 30.6813C21.3588 30.6579 21.5117 30.6646 21.6587 30.701C21.8058 30.7375 21.9441 30.8029 22.0655 30.8936C22.1869 30.9842 22.289 31.0982 22.3658 31.2288C23.1981 32.6355 24.4161 33.7742 25.8756 34.5099C27.3351 35.2456 28.9749 35.5476 30.6008 35.3801L35.3908 34.8876C35.9292 34.8319 36.4278 34.5786 36.7903 34.1766C37.1528 33.7746 37.3534 33.2526 37.3533 32.7113V23.7988C37.3504 23.1063 37.1429 22.43 36.7568 21.8551C36.3707 21.2802 35.8233 20.8322 35.1833 20.5676C32.3995 19.4076 27.3308 17.2063 22.3145 14.5863L16.3883 24.9363L12.4158 27.5376Z" fill="url(#paint14_linear_634_535)"/>
<path d="M15.5835 25.4288L16.246 24.9863L16.3497 24.9501L15.586 25.4301L15.5835 25.4288Z" fill="url(#paint15_radial_634_535)"/>
<path d="M21.1562 16.6088L16.3975 24.9213L18.595 23.5413C19.8966 22.7235 21.4441 22.3886 22.9675 22.595L26.0062 23.0075L21.1562 16.6088Z" fill="url(#paint16_radial_634_535)"/>
<path d="M20 7.49372L21.3412 5.15747L26.12 7.93872L24.7825 10.2762L20 7.49372Z" fill="url(#paint17_linear_634_535)"/>
<path d="M20 7.49372L21.3412 5.15747L26.12 7.93872L24.7825 10.2762L20 7.49372Z" fill="url(#paint18_linear_634_535)"/>
<path d="M10.4821 35.2275C10.4253 35.2988 10.3537 35.3569 10.2721 35.3975L6.30211 37.3663C6.09961 37.4663 5.92962 37.3663 5.91962 37.1413L5.63712 32.715C5.63332 32.6437 5.64177 32.5723 5.66212 32.5038L10.4821 35.2275Z" fill="url(#paint19_linear_634_535)"/>
<path d="M10.4821 35.2275C10.4253 35.2988 10.3537 35.3569 10.2721 35.3975L6.30211 37.3663C6.09961 37.4663 5.92962 37.3663 5.91962 37.1413L5.63712 32.715C5.63332 32.6437 5.64177 32.5723 5.66212 32.5038L10.4821 35.2275Z" fill="url(#paint20_linear_634_535)"/>
<path d="M10.4821 35.2275C10.4253 35.2988 10.3537 35.3569 10.2721 35.3975L6.30211 37.3663C6.09961 37.4663 5.92962 37.3663 5.91962 37.1413L5.63712 32.715C5.63332 32.6437 5.64177 32.5723 5.66212 32.5038L10.4821 35.2275Z" fill="url(#paint21_linear_634_535)"/>
<path d="M7.32342 36.86L6.30217 37.3663C6.09967 37.4663 5.92967 37.3663 5.91967 37.1413L5.84717 36.0088L7.32342 36.86Z" fill="url(#paint22_linear_634_535)"/>
<g filter="url(#filter3_f_634_535)">
<path d="M22.2723 25.7751L15.2323 29.5776C15.1328 29.6317 15.045 29.705 14.9738 29.7931C14.9026 29.8812 14.8495 29.9825 14.8174 30.0911C14.7854 30.1998 14.7751 30.3137 14.7871 30.4263C14.799 30.5389 14.8331 30.6481 14.8873 30.7476C14.9414 30.847 15.0147 30.9349 15.1028 31.0061C15.1909 31.0772 15.2922 31.1304 15.4008 31.1624C15.5095 31.1944 15.6233 31.2047 15.736 31.1928C15.8486 31.1808 15.9578 31.1467 16.0573 31.0926L22.2073 27.7251C22.5634 27.5301 22.9617 27.4248 23.3676 27.4182C23.7736 27.4117 24.175 27.5041 24.5373 27.6876L35.786 33.3776V25.3251H24.0548C23.4325 25.3248 22.8199 25.4795 22.2723 25.7751Z" fill="#FFEF64"/>
</g>
<path d="M16.397 24.92L18.5945 23.5412C19.8962 22.7234 21.4437 22.3885 22.967 22.595L24.802 22.845L22.3783 31.2487L22.3658 31.2287C22.289 31.0981 22.1869 30.9841 22.0655 30.8935C21.9441 30.8029 21.8058 30.7374 21.6587 30.701C21.5117 30.6645 21.3588 30.6578 21.2091 30.6813C21.0594 30.7047 20.9159 30.7578 20.787 30.8375L16.3745 33.5537C14.712 34.5787 12.4133 34.0937 11.3683 32.4412C10.3495 30.83 10.852 28.6312 12.4158 27.5387L16.3883 24.9362L16.397 24.92Z" fill="url(#paint23_linear_634_535)"/>
<path d="M16.397 24.92L18.5945 23.5412C19.8962 22.7234 21.4437 22.3885 22.967 22.595L24.802 22.845L22.3783 31.2487L22.3658 31.2287C22.289 31.0981 22.1869 30.9841 22.0655 30.8935C21.9441 30.8029 21.8058 30.7374 21.6587 30.701C21.5117 30.6645 21.3588 30.6578 21.2091 30.6813C21.0594 30.7047 20.9159 30.7578 20.787 30.8375L16.3745 33.5537C14.712 34.5787 12.4133 34.0937 11.3683 32.4412C10.3495 30.83 10.852 28.6312 12.4158 27.5387L16.3883 24.9362L16.397 24.92Z" fill="url(#paint24_radial_634_535)"/>
<defs>
<filter id="filter0_i_634_535" x="2.05654" y="10.8976" width="18.7618" height="18.6324" filterUnits="userSpaceOnUse" color-interpolation-filters="sRGB">
<feFlood flood-opacity="0" result="BackgroundImageFix"/>
<feBlend mode="normal" in="SourceGraphic" in2="BackgroundImageFix" result="shape"/>
<feColorMatrix in="SourceAlpha" type="matrix" values="0 0 0 0 0 0 0 0 0 0 0 0 0 0 0 0 0 0 127 0" result="hardAlpha"/>
<feOffset dx="-0.15" dy="-0.5"/>
<feGaussianBlur stdDeviation="0.5"/>
<feComposite in2="hardAlpha" operator="arithmetic" k2="-1" k3="1"/>
<feColorMatrix type="matrix" values="0 0 0 0 0.862745 0 0 0 0 0.435294 0 0 0 0 0.321569 0 0 0 1 0"/>
<feBlend mode="normal" in2="shape" result="effect1_innerShadow_634_535"/>
</filter>
<filter id="filter1_f_634_535" x="9.4873" y="9.72754" width="12.814" height="21.4213" filterUnits="userSpaceOnUse" color-interpolation-filters="sRGB">
<feFlood flood-opacity="0" result="BackgroundImageFix"/>
<feBlend mode="normal" in="SourceGraphic" in2="BackgroundImageFix" result="shape"/>
<feGaussianBlur stdDeviation="0.25" result="effect1_foregroundBlur_634_535"/>
</filter>
<filter id="filter2_i_634_535" x="10.8379" y="14.4613" width="26.5156" height="20.9637" filterUnits="userSpaceOnUse" color-interpolation-filters="sRGB">
<feFlood flood-opacity="0" result="BackgroundImageFix"/>
<feBlend mode="normal" in="SourceGraphic" in2="BackgroundImageFix" result="shape"/>
<feColorMatrix in="SourceAlpha" type="matrix" values="0 0 0 0 0 0 0 0 0 0 0 0 0 0 0 0 0 0 127 0" result="hardAlpha"/>
<feOffset dy="-0.125"/>
<feGaussianBlur stdDeviation="0.25"/>
<feComposite in2="hardAlpha" operator="arithmetic" k2="-1" k3="1"/>
<feColorMatrix type="matrix" values="0 0 0 0 0.92549 0 0 0 0 0.509804 0 0 0 0 0.65098 0 0 0 1 0"/>
<feBlend mode="normal" in2="shape" result="effect1_innerShadow_634_535"/>
</filter>
<filter id="filter3_f_634_535" x="13.7822" y="24.3251" width="23.0039" height="10.0525" filterUnits="userSpaceOnUse" color-interpolation-filters="sRGB">
<feFlood flood-opacity="0" result="BackgroundImageFix"/>
<feBlend mode="normal" in="SourceGraphic" in2="BackgroundImageFix" result="shape"/>
<feGaussianBlur stdDeviation="0.5" result="effect1_foregroundBlur_634_535"/>
</filter>
<linearGradient id="paint0_linear_634_535" x1="14.8923" y1="12.5888" x2="6.23102" y2="27.475" gradientUnits="userSpaceOnUse">
<stop stop-color="#E8B229"/>
<stop offset="1" stop-color="#EA9D3E"/>
</linearGradient>
<radialGradient id="paint1_radial_634_535" cx="0" cy="0" r="1" gradientUnits="userSpaceOnUse" gradientTransform="translate(17.6543 12.8054) rotate(151.144) scale(3.02863 2.99089)">
<stop stop-color="#D5A047"/>
<stop offset="1" stop-color="#D5A047" stop-opacity="0"/>
</radialGradient>
<linearGradient id="paint2_linear_634_535" x1="20.6612" y1="30.3601" x2="25.6674" y2="36.6676" gradientUnits="userSpaceOnUse">
<stop stop-color="#DD7828"/>
<stop offset="1" stop-color="#EC82AA"/>
</linearGradient>
<linearGradient id="paint3_linear_634_535" x1="37.5799" y1="37.4813" x2="36.2399" y2="37.4813" gradientUnits="userSpaceOnUse">
<stop stop-color="#F3CA7E"/>
<stop offset="1" stop-color="#F3CA7E" stop-opacity="0"/>
</linearGradient>
<radialGradient id="paint4_radial_634_535" cx="0" cy="0" r="1" gradientUnits="userSpaceOnUse" gradientTransform="translate(17.4648 32.98) rotate(135.869) scale(3.01689 3.6351)">
<stop stop-color="#D76B0E"/>
<stop offset="1" stop-color="#E37C45"/>
</radialGradient>
<radialGradient id="paint5_radial_634_535" cx="0" cy="0" r="1" gradientUnits="userSpaceOnUse" gradientTransform="translate(15.436 31.9375) rotate(90) scale(5.83154 5.12789)">
<stop offset="0.776" stop-color="#EC85B1" stop-opacity="0"/>
<stop offset="1" stop-color="#EC85B1"/>
</radialGradient>
<radialGradient id="paint6_radial_634_535" cx="0" cy="0" r="1" gradientUnits="userSpaceOnUse" gradientTransform="translate(12.416 33.4375) rotate(46.6519) scale(2.7878 4.07349)">
<stop stop-color="#DB8838"/>
<stop offset="1" stop-color="#DB8838" stop-opacity="0"/>
</radialGradient>
<radialGradient id="paint7_radial_634_535" cx="0" cy="0" r="1" gradientUnits="userSpaceOnUse" gradientTransform="translate(10.0792 30.7035) rotate(-60.819) scale(27.5602 20.0065)">
<stop stop-color="#F3752E"/>
<stop offset="1" stop-color="#FD4E50"/>
</radialGradient>
<radialGradient id="paint8_radial_634_535" cx="0" cy="0" r="1" gradientUnits="userSpaceOnUse" gradientTransform="translate(15.5522 27.1813) rotate(-57.9221) scale(6.54632 4.51501)">
<stop stop-color="#D24611"/>
<stop offset="1" stop-color="#D24611" stop-opacity="0"/>
</radialGradient>
<linearGradient id="paint9_linear_634_535" x1="21.4233" y1="16.4513" x2="35.9795" y2="30.7676" gradientUnits="userSpaceOnUse">
<stop stop-color="#FFD142"/>
<stop offset="1" stop-color="#FFD73D"/>
</linearGradient>
<radialGradient id="paint10_radial_634_535" cx="0" cy="0" r="1" gradientUnits="userSpaceOnUse" gradientTransform="translate(28.4696 37.9426) rotate(-135.161) scale(12.3246 7.85014)">
<stop offset="0.212" stop-color="#F1816B"/>
<stop offset="1" stop-color="#F1816B" stop-opacity="0"/>
</radialGradient>
<radialGradient id="paint11_radial_634_535" cx="0" cy="0" r="1" gradientUnits="userSpaceOnUse" gradientTransform="translate(36.0296 22.8226) rotate(149.931) scale(6.46744 1.96709)">
<stop stop-color="#FFEC5D"/>
<stop offset="1" stop-color="#FFEC5D" stop-opacity="0"/>
</radialGradient>
<linearGradient id="paint12_linear_634_535" x1="30.1395" y1="17.9601" x2="29.697" y2="19.3351" gradientUnits="userSpaceOnUse">
<stop stop-color="#F7D160"/>
<stop offset="1" stop-color="#F7D160" stop-opacity="0"/>
</linearGradient>
<linearGradient id="paint13_linear_634_535" x1="29.7671" y1="17.6563" x2="27.5008" y2="22.3438" gradientUnits="userSpaceOnUse">
<stop stop-color="#F8D15D"/>
<stop offset="1" stop-color="#F8D15D" stop-opacity="0"/>
</linearGradient>
<linearGradient id="paint14_linear_634_535" x1="37.9696" y1="26.4851" x2="34.7671" y2="26.4851" gradientUnits="userSpaceOnUse">
<stop stop-color="#F8D15D"/>
<stop offset="1" stop-color="#F8D15D" stop-opacity="0"/>
</linearGradient>
<radialGradient id="paint15_radial_634_535" cx="0" cy="0" r="1" gradientUnits="userSpaceOnUse" gradientTransform="translate(16.4654 25.4306) rotate(-45.6051) scale(9.14468 10.8051)">
<stop offset="0.249" stop-color="#C4654E"/>
<stop offset="1" stop-color="#F19321" stop-opacity="0"/>
</radialGradient>
<radialGradient id="paint16_radial_634_535" cx="0" cy="0" r="1" gradientUnits="userSpaceOnUse" gradientTransform="translate(16.4656 25.4305) rotate(-45.605) scale(9.14468 10.8051)">
<stop offset="0.249" stop-color="#C4654E"/>
<stop offset="1" stop-color="#F19321" stop-opacity="0"/>
</radialGradient>
<linearGradient id="paint17_linear_634_535" x1="20.4312" y1="6.32872" x2="26.12" y2="9.45372" gradientUnits="userSpaceOnUse">
<stop stop-color="#C4A8BC"/>
<stop offset="1" stop-color="#E5D0FC"/>
</linearGradient>
<linearGradient id="paint18_linear_634_535" x1="25.5675" y1="9.01372" x2="25.1575" y2="8.78872" gradientUnits="userSpaceOnUse">
<stop stop-color="#CABAD5"/>
<stop offset="1" stop-color="#CABAD4" stop-opacity="0"/>
</linearGradient>
<linearGradient id="paint19_linear_634_535" x1="6.17337" y1="34.955" x2="9.49336" y2="35.7038" gradientUnits="userSpaceOnUse">
<stop stop-color="#E28A85"/>
<stop offset="1" stop-color="#FF95B3"/>
</linearGradient>
<linearGradient id="paint20_linear_634_535" x1="9.61211" y1="36.8863" x2="7.82086" y2="35.8525" gradientUnits="userSpaceOnUse">
<stop stop-color="#FF8DC2"/>
<stop offset="1" stop-color="#FF8DC2" stop-opacity="0"/>
</linearGradient>
<linearGradient id="paint21_linear_634_535" x1="8.09211" y1="33.8663" x2="7.94086" y2="34.15" gradientUnits="userSpaceOnUse">
<stop stop-color="#FFA3AE"/>
<stop offset="1" stop-color="#FFA3AE" stop-opacity="0"/>
</linearGradient>
<linearGradient id="paint22_linear_634_535" x1="6.17717" y1="36.78" x2="6.79967" y2="37.28" gradientUnits="userSpaceOnUse">
<stop stop-color="#46144E"/>
<stop offset="1" stop-color="#5A1870"/>
</linearGradient>
<linearGradient id="paint23_linear_634_535" x1="13.2045" y1="24.7262" x2="16.6808" y2="28.3125" gradientUnits="userSpaceOnUse">
<stop stop-color="#F0A51D"/>
<stop offset="1" stop-color="#F0A51D" stop-opacity="0"/>
</linearGradient>
<radialGradient id="paint24_radial_634_535" cx="0" cy="0" r="1" gradientUnits="userSpaceOnUse" gradientTransform="translate(10.837 32.4612) rotate(-34.4393) scale(5.66391 7.3627)">
<stop stop-color="#F0A51D"/>
<stop offset="1" stop-color="#F0A51D" stop-opacity="0"/>
</radialGradient>
</defs>
</svg>
