<svg width="26" height="17" viewBox="0 0 26 17" fill="none" xmlns="http://www.w3.org/2000/svg">
<rect y="0.0673828" width="26" height="16" fill="#848895"/>
<path d="M19.9119 4.3189C19.3914 4.54991 18.8391 4.70128 18.2736 4.76791C18.8695 4.41168 19.3153 3.85068 19.5278 3.18973C18.9679 3.52217 18.3553 3.75641 17.7165 3.8823C17.4497 3.59754 17.1272 3.37064 16.769 3.21568C16.4109 3.06071 16.0248 2.98099 15.6345 2.98145C14.0594 2.98145 12.7824 4.2585 12.7824 5.83386C12.7824 6.0571 12.8075 6.27469 12.8563 6.48382C10.4857 6.36472 8.38369 5.22934 6.97681 3.50356C6.72306 3.93889 6.5898 4.43393 6.59073 4.93781C6.59073 5.92728 7.09421 6.80047 7.8596 7.31186C7.40664 7.29749 6.96367 7.17508 6.56759 6.95485L6.56731 6.99097C6.56731 8.37273 7.55057 9.52532 8.85556 9.78779C8.43536 9.90154 7.99478 9.91814 7.56722 9.83633C7.93044 10.9695 8.98369 11.7944 10.2317 11.8172C9.22137 12.6103 7.97363 13.0405 6.68923 13.0384C6.45922 13.0384 6.23203 13.0249 6.00879 12.9983C7.31295 13.8366 8.83093 14.2815 10.3813 14.2799C15.628 14.2799 18.4968 9.9337 18.4968 6.16434C18.4968 6.04073 18.4943 5.9174 18.4889 5.79492C19.0474 5.39168 19.5294 4.89181 19.9119 4.3189Z" fill="black"/>
</svg>
