<svg width="26" height="17" viewBox="0 0 26 17" fill="none" xmlns="http://www.w3.org/2000/svg">
<rect y="0.0673828" width="26" height="16" fill="#848895"/>
<path d="M20.533 4.93421C20.533 4.80088 20.333 3.73421 19.8663 3.26755C19.2663 2.60088 18.5997 2.53421 18.2663 2.53421H18.1997C16.133 2.40088 13.0663 2.40088 12.9997 2.40088C12.9997 2.40088 9.86634 2.40088 7.79967 2.53421H7.73301C7.39967 2.53421 6.73301 2.60088 6.13301 3.26755C5.66634 3.80088 5.46634 4.86755 5.46634 5.00088C5.46634 5.06755 5.33301 6.26755 5.33301 7.53421V8.66755C5.33301 9.93421 5.46634 11.1342 5.46634 11.2009C5.46634 11.3342 5.66634 12.4009 6.13301 12.8675C6.66634 13.4675 7.33301 13.5342 7.73301 13.6009H7.93301C9.13301 13.7342 12.7997 13.7342 12.933 13.7342C12.933 13.7342 16.0663 13.7342 18.133 13.6009H18.1997C18.533 13.5342 19.1997 13.4675 19.7997 12.8675C20.2663 12.3342 20.4663 11.2675 20.4663 11.1342C20.4663 11.0675 20.5997 9.86755 20.5997 8.60088V7.46755C20.6663 6.26755 20.533 5.00088 20.533 4.93421ZM15.5997 8.20088L11.5997 10.3342C11.533 10.3342 11.533 10.4009 11.4663 10.4009C11.3997 10.4009 11.333 10.4009 11.333 10.3342C11.2663 10.2675 11.1997 10.2009 11.1997 10.0675V5.73421C11.1997 5.60088 11.2663 5.53421 11.333 5.46755C11.3997 5.40088 11.533 5.40088 11.6663 5.46755L15.6663 7.60088C15.7997 7.66755 15.8663 7.73421 15.8663 7.86755C15.8663 8.00088 15.733 8.13421 15.5997 8.20088Z" fill="black"/>
</svg>
