<svg width="26" height="17" viewBox="0 0 26 17" fill="none" xmlns="http://www.w3.org/2000/svg">
<rect width="26" height="16" transform="translate(0 0.0673828)" fill="#0F0F0F"/>
<rect y="0.0673828" width="26" height="16" fill="#848895"/>
<path d="M10.3588 2.51318C9.85049 2.51318 8.31791 3.13491 8.04295 3.25916C7.76799 3.38341 7.4628 3.77128 7.1165 4.41143C6.76974 5.05158 6.49147 5.79992 6.03935 6.9007C5.5877 8.00148 5.48235 10.1237 5.49747 10.7714C5.51258 11.4191 5.58676 11.9251 6.25053 12.3082C6.91383 12.6909 7.5006 13.0915 8.11807 13.3324C8.73602 13.5734 9.15743 13.7468 9.44373 13.5058C9.73002 13.2649 9.91852 12.843 9.91852 12.843C9.91852 12.843 10.1897 12.4665 9.67758 12.2406C9.16546 12.0143 8.9094 11.8561 8.9316 11.6227C8.95428 11.3893 8.9916 11.2613 9.11963 11.2915C9.24766 11.3218 9.54955 11.8636 10.7094 12.1121C11.8692 12.3606 12.9998 12.3233 12.9998 12.3233C12.9998 12.3233 14.1308 12.3611 15.2906 12.1121C16.4504 11.8636 16.7518 11.3218 16.8799 11.2915C17.0079 11.2613 17.0452 11.3893 17.0679 11.6222C17.0906 11.8561 16.8345 12.0143 16.3224 12.2406C15.8103 12.4665 16.0815 12.843 16.0815 12.843C16.0815 12.843 16.27 13.2644 16.5563 13.5058C16.8421 13.7468 17.264 13.5734 17.8814 13.3324C18.4989 13.0915 19.0862 12.6914 19.7495 12.3082C20.4132 11.9251 20.4874 11.4191 20.5025 10.7714C20.5176 10.1241 20.4123 8.00148 19.9602 6.9007C19.5085 5.79992 19.2298 5.05158 18.883 4.41143C18.5372 3.77128 18.2315 3.38341 17.957 3.25869C17.6821 3.13491 16.149 2.51318 15.6407 2.51318C15.1323 2.51318 14.9821 2.86751 14.9821 2.86751L14.8049 3.25916C14.8049 3.25916 13.6144 3.03286 13.0078 3.03239C12.4012 3.03239 11.195 3.25916 11.195 3.25916L11.0179 2.86704C11.0179 2.86704 10.8676 2.51318 10.3588 2.51318ZM10.4141 7.21298H10.433C11.1743 7.21298 11.7747 7.86164 11.7747 8.66147C11.7747 9.46178 11.1743 10.11 10.433 10.11C9.69175 10.11 9.09129 9.46178 9.09129 8.66147C9.09082 7.86919 9.68042 7.22385 10.4141 7.21298ZM15.567 7.21298H15.5859C16.3196 7.22385 16.9087 7.86967 16.9087 8.66147C16.9087 9.46178 16.3082 10.11 15.567 10.11C14.8252 10.11 14.2253 9.46178 14.2253 8.66147C14.2253 7.86164 14.8252 7.21298 15.567 7.21298Z" fill="black"/>
</svg>
