<svg width="26" height="17" viewBox="0 0 26 17" fill="none" xmlns="http://www.w3.org/2000/svg">
<rect y="0.0673828" width="26" height="16" fill="#848895"/>
<g clip-path="url(#clip0_634_3071)">
<path fill-rule="evenodd" clip-rule="evenodd" d="M13 0.0673828C8.58233 0.0673828 5 3.73972 5 8.26972C5 11.894 7.29233 14.9687 10.471 16.0531C10.871 16.129 11.0177 15.8754 11.0177 15.6587C11.0177 15.463 11.01 14.817 11.0067 14.1317C8.781 14.6277 8.31133 13.1637 8.31133 13.1637C7.94733 12.2157 7.423 11.9637 7.423 11.9637C6.69733 11.4544 7.478 11.465 7.478 11.465C8.28133 11.5227 8.70433 12.3101 8.70433 12.3101C9.41767 13.564 10.5757 13.2017 11.0323 12.992C11.104 12.462 11.3113 12.1 11.54 11.8954C9.76333 11.6877 7.89533 10.9844 7.89533 7.84138C7.89533 6.94605 8.20767 6.21405 8.71967 5.63972C8.63633 5.43305 8.36267 4.59872 8.797 3.46905C8.797 3.46905 9.469 3.24872 10.9977 4.30972C11.6357 4.12805 12.3203 4.03705 13 4.03372C13.68 4.03705 14.365 4.12805 15.0043 4.30972C16.531 3.24872 17.202 3.46905 17.202 3.46905C17.6373 4.59905 17.3633 5.43305 17.2803 5.63972C17.7937 6.21405 18.1037 6.94605 18.1037 7.84138C18.1037 10.9921 16.2323 11.6857 14.4507 11.8887C14.7377 12.1434 14.9933 12.6424 14.9933 13.4077C14.9933 14.505 14.9843 15.3884 14.9843 15.6587C14.9843 15.877 15.1283 16.1327 15.5337 16.052C18.7107 14.9664 21 11.8927 21 8.26972C21 3.73972 17.4183 0.0673828 13 0.0673828Z" fill="black"/>
<path fill-rule="evenodd" clip-rule="evenodd" d="M8.02969 11.8442C8.01202 11.8852 7.94969 11.8972 7.89269 11.8692C7.83469 11.8425 7.80202 11.7869 7.82069 11.7459C7.83802 11.7039 7.90069 11.6925 7.95869 11.7202C8.01669 11.7472 8.04969 11.8035 8.02969 11.8442ZM8.35369 12.2149C8.31569 12.2509 8.24102 12.2342 8.19036 12.1769C8.13802 12.1195 8.12836 12.0432 8.16702 12.0065C8.20636 11.9699 8.27869 11.9872 8.33102 12.0442C8.38336 12.1022 8.39369 12.1782 8.35369 12.2149ZM8.66902 12.6872C8.62036 12.7222 8.54002 12.6895 8.49036 12.6165C8.44136 12.5432 8.44136 12.4559 8.49169 12.4209C8.54136 12.3859 8.62002 12.4175 8.67036 12.4899C8.71936 12.5639 8.71936 12.6515 8.66902 12.6872ZM9.10136 13.1439C9.05736 13.1932 8.96402 13.1799 8.89569 13.1122C8.82569 13.0462 8.80636 12.9522 8.85036 12.9025C8.89469 12.8529 8.98869 12.8669 9.05736 12.9339C9.12702 12.9999 9.14802 13.0945 9.10136 13.1439ZM9.69736 13.4085C9.67802 13.4729 9.58802 13.5019 9.49736 13.4749C9.40736 13.4465 9.34802 13.3715 9.36602 13.3065C9.38502 13.2419 9.47536 13.2112 9.56669 13.2405C9.65669 13.2685 9.71636 13.3432 9.69736 13.4085ZM10.3524 13.4579C10.3544 13.5255 10.2777 13.5812 10.1824 13.5825C10.0867 13.5849 10.0094 13.5302 10.0084 13.4635C10.0084 13.3952 10.0837 13.3399 10.179 13.3382C10.2744 13.3362 10.3524 13.3905 10.3524 13.4579ZM10.9614 13.3515C10.9727 13.4175 10.9067 13.4852 10.8124 13.5032C10.7194 13.5205 10.6334 13.4799 10.6217 13.4145C10.61 13.3469 10.6774 13.2789 10.77 13.2612C10.8647 13.2445 10.9494 13.2849 10.9614 13.3515Z" fill="black"/>
</g>
<defs>
<clipPath id="clip0_634_3071">
<rect width="16" height="16" fill="white" transform="translate(5 0.0673828)"/>
</clipPath>
</defs>
</svg>
