<svg width="26" height="17" viewBox="0 0 26 17" fill="none" xmlns="http://www.w3.org/2000/svg">
<g clip-path="url(#clip0_634_3084)">
<rect y="0.0673828" width="26" height="16" rx="8" fill="white"/>
<rect y="0.0673828" width="26" height="16" fill="#848895"/>
<path d="M19.9692 8.09442C19.9687 7.66871 19.7994 7.26057 19.4984 6.95955C19.1974 6.65853 18.7892 6.48922 18.3635 6.48878C17.9737 6.48832 17.5972 6.63078 17.3053 6.8892C16.2435 6.20969 14.8266 5.78162 13.2639 5.73534L14.2202 2.46479L16.568 2.90105C16.568 2.92024 16.564 2.9383 16.5652 2.95749C16.5792 3.22613 16.6992 3.47824 16.8988 3.65852C17.0985 3.83881 17.3615 3.93255 17.6301 3.91918C17.8987 3.90509 18.1508 3.78507 18.331 3.58543C18.5112 3.38579 18.6049 3.12283 18.5915 2.85421C18.5775 2.58557 18.4575 2.33346 18.2579 2.15317C18.0582 1.97289 17.7952 1.87915 17.5266 1.89251C17.3554 1.90162 17.1894 1.95404 17.044 2.04486C16.8987 2.13567 16.7788 2.26191 16.6955 2.41174L16.6947 2.41146L13.8655 1.88574L12.7387 5.73477C11.172 5.77625 9.75063 6.20207 8.68424 6.88017C8.3936 6.62727 8.02118 6.48822 7.63592 6.48878C7.21023 6.4893 6.80214 6.65863 6.50113 6.95964C6.20013 7.26064 6.0308 7.66874 6.03027 8.09442C6.03027 8.64186 6.31218 9.14698 6.76876 9.44158C6.74022 9.60275 6.72559 9.76608 6.72502 9.92976C6.72502 12.2471 9.53447 14.1327 12.9879 14.1327C16.4413 14.1327 19.2502 12.2471 19.2502 9.92948C19.2502 9.7692 19.2355 9.61117 19.2093 9.45541C19.441 9.31173 19.6324 9.11139 19.7653 8.87327C19.8982 8.63516 19.9686 8.36711 19.9692 8.09442ZM10.0114 9.18705C10.0114 9.05748 10.037 8.92918 10.0866 8.80949C10.1362 8.68979 10.2089 8.58105 10.3006 8.48945C10.3922 8.39786 10.501 8.32521 10.6207 8.27566C10.7404 8.22611 10.8687 8.20063 10.9983 8.20066C11.1279 8.2007 11.2562 8.22626 11.3759 8.27588C11.4956 8.3255 11.6043 8.3982 11.6959 8.48985C11.7875 8.5815 11.8602 8.69029 11.9097 8.81001C11.9593 8.92973 11.9847 9.05804 11.9847 9.18761C11.9846 9.44929 11.8806 9.70022 11.6955 9.88521C11.5104 10.0702 11.2594 10.1741 10.9978 10.174C10.7361 10.1739 10.4851 10.0699 10.3002 9.88481C10.1152 9.69972 10.0113 9.44873 10.0114 9.18705ZM15.3137 11.856C15.2843 11.8864 14.5763 12.6069 12.9763 12.6069C11.3678 12.6069 10.7245 11.8766 10.6982 11.8455C10.6575 11.7946 10.6382 11.7298 10.6442 11.6649C10.6502 11.6 10.6811 11.5399 10.7304 11.4972C10.7798 11.4546 10.8437 11.4327 10.9089 11.4362C10.974 11.4397 11.0352 11.4683 11.0797 11.5159C11.0944 11.5317 11.6311 12.1026 12.976 12.1026C14.3446 12.1026 14.9446 11.5114 14.9508 11.5058C14.9982 11.4624 15.0603 11.4388 15.1245 11.4396C15.1888 11.4405 15.2502 11.4658 15.2965 11.5104C15.3427 11.555 15.3702 11.6155 15.3734 11.6796C15.3766 11.7438 15.3552 11.807 15.3137 11.856ZM15.1175 10.1739C14.988 10.1739 14.8597 10.1484 14.74 10.0989C14.6203 10.0494 14.5115 9.97678 14.4198 9.88521C14.3282 9.79364 14.2555 9.68492 14.2058 9.56525C14.1562 9.44558 14.1306 9.31731 14.1306 9.18775C14.1305 9.0582 14.156 8.92991 14.2055 8.81019C14.255 8.69048 14.3277 8.5817 14.4192 8.49005C14.5108 8.3984 14.6195 8.32569 14.7392 8.27606C14.8589 8.22643 14.9871 8.20086 15.1167 8.2008C15.3783 8.20069 15.6293 8.30452 15.8144 8.48945C15.9995 8.67438 16.1035 8.92526 16.1036 9.18691C16.1038 9.44855 15.9999 9.69952 15.815 9.88461C15.6301 10.0697 15.3792 10.1737 15.1175 10.1739Z" fill="black"/>
</g>
<defs>
<clipPath id="clip0_634_3084">
<rect y="0.0673828" width="26" height="16" rx="8" fill="white"/>
</clipPath>
</defs>
</svg>
