<svg width="17" height="25" viewBox="0 0 17 25" fill="none" xmlns="http://www.w3.org/2000/svg">
<path d="M10.9287 0.5C13.9921 0.500078 16.5 3.06066 16.5 6.25V16.25C16.5 20.8201 12.9047 24.5 8.5 24.5C4.09529 24.5 0.5 20.8201 0.5 16.25V8.75C0.5 8.32219 0.833122 8.00024 1.21387 8C1.59479 8 1.92871 8.32203 1.92871 8.75V16.25C1.92871 19.9641 4.85714 23 8.5 23C12.1428 23 15.0713 19.9641 15.0713 16.25V6.25C15.0713 3.91661 13.2303 2.00008 10.9287 2C8.62705 2 6.78613 3.91656 6.78613 6.25V16.25C6.78613 17.2028 7.53964 18 8.5 18C9.46036 18 10.2139 17.2028 10.2139 16.25V8.75C10.2139 8.32202 10.5478 8 10.9287 8C11.3096 8.00008 11.6426 8.32208 11.6426 8.75V16.25C11.6426 18.0587 10.2222 19.5 8.5 19.5C6.77776 19.5 5.35742 18.0587 5.35742 16.25V6.25C5.35742 3.06061 7.86529 0.5 10.9287 0.5Z" fill="white" stroke="white"/>
</svg>
