<svg xmlns="http://www.w3.org/2000/svg" fill="none" viewBox="31 17 87 143">
<g filter="url(#filter0_d_1271_524)">
<rect x="31" y="17" width="87" height="143" rx="15" fill="#1C1A32"/>
<rect x="32" y="18" width="85" height="141" rx="14" stroke="url(#paint0_linear_1271_524)" stroke-width="2"/>
</g>
<path d="M55.3331 127H53.4131L58.1971 116.28H60.6291L65.4131 127H63.4611L62.2291 124.216H56.5651L55.3331 127ZM58.7091 119.4L57.2531 122.664H61.5411L60.0851 119.4L59.4611 117.88H59.3331L58.7091 119.4ZM69.0451 127.16C66.8051 127.16 65.7171 125.672 65.7171 123.832V119.048H67.4291V123.368C67.4291 124.856 68.1171 125.608 69.7971 125.608C71.5571 125.608 72.3731 124.712 72.3731 122.984V119.048H74.0851V127H72.5011V124.536H72.4051C72.1491 125.88 71.0931 127.16 69.0451 127.16ZM78.679 127.16C76.167 127.16 74.775 125.48 74.775 123.032C74.775 120.552 76.151 118.888 78.567 118.888C80.455 118.888 81.527 119.864 81.847 121.208H81.943V116.28H83.671V127H82.087V124.712H81.975C81.639 126.296 80.471 127.16 78.679 127.16ZM76.519 123.032C76.519 124.936 77.495 125.576 79.207 125.576C80.903 125.576 81.943 124.776 81.943 123.112V122.984C81.943 121.288 80.951 120.456 79.175 120.456C77.511 120.456 76.519 121.112 76.519 123.032ZM86.5167 118.12H84.7887V116.28H86.5167V118.12ZM86.5167 127H84.7887V119.048H86.5167V127ZM91.7009 127.16C89.0609 127.16 87.2849 125.48 87.2849 123.032C87.2849 120.552 89.0609 118.888 91.7009 118.888C94.3569 118.888 96.1329 120.552 96.1329 123.032C96.1329 125.48 94.3569 127.16 91.7009 127.16ZM91.7009 125.624C93.6369 125.624 94.4369 124.712 94.4369 123.032C94.4369 121.336 93.6369 120.408 91.7009 120.408C89.7809 120.408 88.9809 121.336 88.9809 123.032C88.9809 124.712 89.7809 125.624 91.7009 125.624ZM42.3478 147H40.4278L45.2118 136.28H47.6438L52.4278 147H50.4758L49.2438 144.216H43.5798L42.3478 147ZM45.7238 139.4L44.2678 142.664H48.5558L47.0998 139.4L46.4758 137.88H46.3478L45.7238 139.4ZM56.5078 147.16C53.9478 147.16 52.4918 146.152 52.4918 144.312V144.264H54.2198V144.392C54.2198 145.432 54.8438 145.768 56.5078 145.768C58.0598 145.768 58.5238 145.448 58.5238 144.744C58.5238 144.088 58.1398 143.88 57.0038 143.72L54.8278 143.432C53.3238 143.24 52.4118 142.6 52.4118 141.272C52.4118 139.88 53.6758 138.888 56.1238 138.888C58.5558 138.888 60.0278 139.864 60.0278 141.752V141.8H58.3158V141.704C58.3158 140.76 57.8358 140.264 56.0758 140.264C54.6198 140.264 54.1078 140.584 54.1078 141.336C54.1078 141.96 54.4278 142.184 55.6278 142.344L57.4678 142.6C59.3558 142.84 60.2198 143.48 60.2198 144.792C60.2198 146.28 58.7478 147.16 56.5078 147.16ZM64.7466 147.16C62.1866 147.16 60.7306 146.152 60.7306 144.312V144.264H62.4586V144.392C62.4586 145.432 63.0826 145.768 64.7466 145.768C66.2986 145.768 66.7626 145.448 66.7626 144.744C66.7626 144.088 66.3786 143.88 65.2426 143.72L63.0666 143.432C61.5626 143.24 60.6506 142.6 60.6506 141.272C60.6506 139.88 61.9146 138.888 64.3626 138.888C66.7946 138.888 68.2666 139.864 68.2666 141.752V141.8H66.5546V141.704C66.5546 140.76 66.0746 140.264 64.3146 140.264C62.8586 140.264 62.3466 140.584 62.3466 141.336C62.3466 141.96 62.6666 142.184 63.8666 142.344L65.7066 142.6C67.5946 142.84 68.4586 143.48 68.4586 144.792C68.4586 146.28 66.9866 147.16 64.7466 147.16ZM70.9533 138.12H69.2253V136.28H70.9533V138.12ZM70.9533 147H69.2253V139.048H70.9533V147ZM75.8334 147.16C73.2734 147.16 71.8174 146.152 71.8174 144.312V144.264H73.5454V144.392C73.5454 145.432 74.1694 145.768 75.8334 145.768C77.3854 145.768 77.8494 145.448 77.8494 144.744C77.8494 144.088 77.4654 143.88 76.3294 143.72L74.1534 143.432C72.6494 143.24 71.7374 142.6 71.7374 141.272C71.7374 139.88 73.0014 138.888 75.4494 138.888C77.8814 138.888 79.3534 139.864 79.3534 141.752V141.8H77.6414V141.704C77.6414 140.76 77.1614 140.264 75.4014 140.264C73.9454 140.264 73.4334 140.584 73.4334 141.336C73.4334 141.96 73.7534 142.184 74.9534 142.344L76.7934 142.6C78.6814 142.84 79.5454 143.48 79.5454 144.792C79.5454 146.28 78.0734 147.16 75.8334 147.16ZM85.5282 147H83.7042C81.9922 147 80.9362 146.248 80.9362 144.312V140.488H79.5922V139.048H80.9362V137.304H82.6482V139.048H85.5282V140.488H82.6482V144.216C82.6482 145.192 83.0962 145.448 84.0882 145.448H85.5282V147ZM88.4651 147.16C86.8171 147.16 85.7771 146.392 85.7771 145.08C85.7771 143.848 86.7691 143.208 88.3371 143.032L91.9531 142.648V142.184C91.9531 140.872 91.3771 140.408 89.8571 140.408C88.3851 140.408 87.6651 140.888 87.6651 142.056V142.12H85.9531V142.056C85.9531 140.248 87.4571 138.888 89.9851 138.888C92.5131 138.888 93.6491 140.264 93.6491 142.168V147H92.0651V145.016H91.9531C91.5371 146.36 90.2731 147.16 88.4651 147.16ZM87.5051 144.968C87.5051 145.608 87.9371 145.912 88.9291 145.912C90.7371 145.912 91.9531 145.24 91.9531 143.672L88.8331 144.024C87.9371 144.136 87.5051 144.344 87.5051 144.968ZM96.4396 147H94.7116V139.048H96.2956V141.512H96.4076C96.6476 140.168 97.7036 138.888 99.7196 138.888C101.928 138.888 103.016 140.376 103.016 142.216V147H101.288V142.68C101.288 141.192 100.616 140.44 98.9676 140.44C97.2236 140.44 96.4396 141.336 96.4396 143.064V147ZM109.291 147H107.467C105.755 147 104.699 146.248 104.699 144.312V140.488H103.355V139.048H104.699V137.304H106.411V139.048H109.291V140.488H106.411V144.216C106.411 145.192 106.859 145.448 107.851 145.448H109.291V147Z" fill="#C0BCDC"/>
<path d="M105.215 72.8487H101.738C101.738 57.23 89.2014 44.5234 73.7918 44.5234C58.3821 44.5234 45.8457 57.23 45.8457 72.8487H42.3696C42.3696 55.2873 56.4656 41 73.7919 41C91.1181 41 105.215 55.2873 105.215 72.8487Z" fill="url(#paint1_linear_1271_524)"/>
<path d="M50.9587 82.6041C49.9081 82.6041 49.0562 81.7412 49.0562 80.6758V75.9511C49.0562 74.8859 49.9083 74.0228 50.9587 74.0228C52.0096 74.0228 52.8617 74.8859 52.8617 75.9511V80.6758C52.8617 81.7412 52.0096 82.6041 50.9587 82.6041Z" fill="url(#paint2_linear_1271_524)"/>
<path d="M56.6672 89.931C55.6163 89.931 54.7642 89.0675 54.7642 88.0027V68.6248C54.7642 67.5597 55.6161 66.6961 56.6672 66.6961C57.7181 66.6961 58.5697 67.5597 58.5697 68.6248V88.0027C58.5697 89.0674 57.7181 89.931 56.6672 89.931Z" fill="url(#paint3_linear_1271_524)"/>
<path d="M62.3757 87.4035C61.3248 87.4035 60.4727 86.5399 60.4727 85.4751V71.1518C60.4727 70.087 61.3246 69.2234 62.3757 69.2234C63.4262 69.2234 64.2782 70.087 64.2782 71.1518V85.4751C64.2782 86.5399 63.4262 87.4035 62.3757 87.4035Z" fill="url(#paint4_linear_1271_524)"/>
<path d="M68.0842 93.5819C67.0333 93.5819 66.1812 92.7188 66.1812 91.6535V64.974C66.1812 63.9084 67.0333 63.0451 68.0842 63.0451C69.1351 63.0451 69.9867 63.9083 69.9867 64.974V91.6535C69.9867 92.7187 69.1351 93.5819 68.0842 93.5819Z" fill="url(#paint5_linear_1271_524)"/>
<path d="M73.7923 100.323C72.7418 100.323 71.8896 99.4596 71.8896 98.3937V58.2332C71.8896 57.1682 72.7418 56.3046 73.7923 56.3046C74.8432 56.3046 75.6953 57.1682 75.6953 58.2332V98.3937C75.6953 99.4594 74.8432 100.323 73.7923 100.323Z" fill="url(#paint6_linear_1271_524)"/>
<path d="M79.5007 93.5819C78.4498 93.5819 77.5981 92.7188 77.5981 91.6535V64.974C77.5981 63.9084 78.4498 63.0451 79.5007 63.0451C80.5516 63.0451 81.4033 63.9083 81.4033 64.974V91.6535C81.4033 92.7187 80.5517 93.5819 79.5007 93.5819Z" fill="url(#paint7_linear_1271_524)"/>
<path d="M85.2093 87.4035C84.1584 87.4035 83.3062 86.5399 83.3062 85.4751V71.1518C83.3062 70.087 84.1583 69.2234 85.2093 69.2234C86.2599 69.2234 87.1118 70.087 87.1118 71.1518V85.4751C87.1118 86.5399 86.2599 87.4035 85.2093 87.4035Z" fill="url(#paint8_linear_1271_524)"/>
<path d="M90.9172 89.931C89.8663 89.931 89.0146 89.0675 89.0146 88.0027V68.6248C89.0146 67.5597 89.8663 66.6961 90.9172 66.6961C91.9682 66.6961 92.8203 67.5597 92.8203 68.6248V88.0027C92.8202 89.0674 91.9682 89.931 90.9172 89.931Z" fill="url(#paint9_linear_1271_524)"/>
<path d="M96.6256 82.6041C95.5744 82.6041 94.7227 81.7412 94.7227 80.6758V75.9511C94.7227 74.8859 95.5743 74.0228 96.6256 74.0228C97.6765 74.0228 98.5281 74.8859 98.5281 75.9511V80.6758C98.5281 81.7412 97.6765 82.6041 96.6256 82.6041Z" fill="url(#paint10_linear_1271_524)"/>
<path d="M102.528 86.5166C101.322 86.5166 100.345 85.5263 100.345 84.3046V72.3233C100.345 71.1012 101.322 70.1105 102.528 70.1105C106.977 70.1105 110.584 73.7665 110.584 78.2767V78.3509C110.584 82.8609 106.977 86.5166 102.528 86.5166Z" fill="url(#paint11_linear_1271_524)"/>
<path d="M45.0568 86.5166C46.2621 86.5166 47.2395 85.5263 47.2395 84.3046V72.3233C47.2395 71.1012 46.2621 70.1105 45.0568 70.1105C40.6071 70.1105 37 73.7665 37 78.2767V78.3509C37 82.8609 40.6071 86.5166 45.0568 86.5166Z" fill="url(#paint12_linear_1271_524)"/>
<defs>
<filter id="filter0_d_1271_524" x="0" y="0" width="149" height="205" filterUnits="userSpaceOnUse" color-interpolation-filters="sRGB">
<feFlood flood-opacity="0" result="BackgroundImageFix"/>
<feColorMatrix in="SourceAlpha" type="matrix" values="0 0 0 0 0 0 0 0 0 0 0 0 0 0 0 0 0 0 127 0" result="hardAlpha"/>
<feMorphology radius="2" operator="dilate" in="SourceAlpha" result="effect1_dropShadow_1271_524"/>
<feOffset dy="14"/>
<feGaussianBlur stdDeviation="14.5"/>
<feComposite in2="hardAlpha" operator="out"/>
<feColorMatrix type="matrix" values="0 0 0 0 0.592157 0 0 0 0 0.278431 0 0 0 0 1 0 0 0 0.2 0"/>
<feBlend mode="normal" in2="BackgroundImageFix" result="effect1_dropShadow_1271_524"/>
<feBlend mode="normal" in="SourceGraphic" in2="effect1_dropShadow_1271_524" result="shape"/>
</filter>
<linearGradient id="paint0_linear_1271_524" x1="57.25" y1="-7.51424" x2="82.2873" y2="-6.75007" gradientUnits="userSpaceOnUse">
<stop stop-color="#8C292F"/>
<stop offset="1" stop-color="#4A4588"/>
</linearGradient>
<linearGradient id="paint1_linear_1271_524" x1="37.6556" y1="56.7724" x2="110.89" y2="57.3014" gradientUnits="userSpaceOnUse">
<stop stop-color="#8B282F"/>
<stop offset="0.1328" stop-color="#822B36"/>
<stop offset="0.3536" stop-color="#683549"/>
<stop offset="0.6351" stop-color="#3F4468"/>
<stop offset="0.9635" stop-color="#065993"/>
<stop offset="0.9944" stop-color="#005B97"/>
</linearGradient>
<linearGradient id="paint2_linear_1271_524" x1="37.5009" y1="78.2138" x2="110.735" y2="78.7428" gradientUnits="userSpaceOnUse">
<stop stop-color="#8B282F"/>
<stop offset="0.1328" stop-color="#822B36"/>
<stop offset="0.3536" stop-color="#683549"/>
<stop offset="0.6351" stop-color="#3F4468"/>
<stop offset="0.9635" stop-color="#065993"/>
<stop offset="0.9944" stop-color="#005B97"/>
</linearGradient>
<linearGradient id="paint3_linear_1271_524" x1="37.5011" y1="78.1713" x2="110.735" y2="78.7003" gradientUnits="userSpaceOnUse">
<stop stop-color="#8B282F"/>
<stop offset="0.1328" stop-color="#822B36"/>
<stop offset="0.3536" stop-color="#683549"/>
<stop offset="0.6351" stop-color="#3F4468"/>
<stop offset="0.9635" stop-color="#065993"/>
<stop offset="0.9944" stop-color="#005B97"/>
</linearGradient>
<linearGradient id="paint4_linear_1271_524" x1="37.5013" y1="78.129" x2="110.735" y2="78.658" gradientUnits="userSpaceOnUse">
<stop stop-color="#8B282F"/>
<stop offset="0.1328" stop-color="#822B36"/>
<stop offset="0.3536" stop-color="#683549"/>
<stop offset="0.6351" stop-color="#3F4468"/>
<stop offset="0.9635" stop-color="#065993"/>
<stop offset="0.9944" stop-color="#005B97"/>
</linearGradient>
<linearGradient id="paint5_linear_1271_524" x1="37.502" y1="78.0865" x2="110.736" y2="78.6156" gradientUnits="userSpaceOnUse">
<stop stop-color="#8B282F"/>
<stop offset="0.1328" stop-color="#822B36"/>
<stop offset="0.3536" stop-color="#683549"/>
<stop offset="0.6351" stop-color="#3F4468"/>
<stop offset="0.9635" stop-color="#065993"/>
<stop offset="0.9944" stop-color="#005B97"/>
</linearGradient>
<linearGradient id="paint6_linear_1271_524" x1="37.5023" y1="78.0444" x2="110.736" y2="78.5735" gradientUnits="userSpaceOnUse">
<stop stop-color="#8B282F"/>
<stop offset="0.1328" stop-color="#822B36"/>
<stop offset="0.3536" stop-color="#683549"/>
<stop offset="0.6351" stop-color="#3F4468"/>
<stop offset="0.9635" stop-color="#065993"/>
<stop offset="0.9944" stop-color="#005B97"/>
</linearGradient>
<linearGradient id="paint7_linear_1271_524" x1="37.5025" y1="78.0018" x2="110.737" y2="78.5308" gradientUnits="userSpaceOnUse">
<stop stop-color="#8B282F"/>
<stop offset="0.1328" stop-color="#822B36"/>
<stop offset="0.3536" stop-color="#683549"/>
<stop offset="0.6351" stop-color="#3F4468"/>
<stop offset="0.9635" stop-color="#065993"/>
<stop offset="0.9944" stop-color="#005B97"/>
</linearGradient>
<linearGradient id="paint8_linear_1271_524" x1="37.5028" y1="77.9594" x2="110.737" y2="78.4885" gradientUnits="userSpaceOnUse">
<stop stop-color="#8B282F"/>
<stop offset="0.1328" stop-color="#822B36"/>
<stop offset="0.3536" stop-color="#683549"/>
<stop offset="0.6351" stop-color="#3F4468"/>
<stop offset="0.9635" stop-color="#065993"/>
<stop offset="0.9944" stop-color="#005B97"/>
</linearGradient>
<linearGradient id="paint9_linear_1271_524" x1="37.503" y1="77.9171" x2="110.737" y2="78.4462" gradientUnits="userSpaceOnUse">
<stop stop-color="#8B282F"/>
<stop offset="0.1328" stop-color="#822B36"/>
<stop offset="0.3536" stop-color="#683549"/>
<stop offset="0.6351" stop-color="#3F4468"/>
<stop offset="0.9635" stop-color="#065993"/>
<stop offset="0.9944" stop-color="#005B97"/>
</linearGradient>
<linearGradient id="paint10_linear_1271_524" x1="37.5035" y1="77.8748" x2="110.738" y2="78.4038" gradientUnits="userSpaceOnUse">
<stop stop-color="#8B282F"/>
<stop offset="0.1328" stop-color="#822B36"/>
<stop offset="0.3536" stop-color="#683549"/>
<stop offset="0.6351" stop-color="#3F4468"/>
<stop offset="0.9635" stop-color="#065993"/>
<stop offset="0.9944" stop-color="#005B97"/>
</linearGradient>
<linearGradient id="paint11_linear_1271_524" x1="37.5038" y1="77.8309" x2="110.738" y2="78.36" gradientUnits="userSpaceOnUse">
<stop stop-color="#8B282F"/>
<stop offset="0.1328" stop-color="#822B36"/>
<stop offset="0.3536" stop-color="#683549"/>
<stop offset="0.6351" stop-color="#3F4468"/>
<stop offset="0.9635" stop-color="#065993"/>
<stop offset="0.9944" stop-color="#005B97"/>
</linearGradient>
<linearGradient id="paint12_linear_1271_524" x1="37.5006" y1="78.2576" x2="110.735" y2="78.7866" gradientUnits="userSpaceOnUse">
<stop stop-color="#8B282F"/>
<stop offset="0.1328" stop-color="#822B36"/>
<stop offset="0.3536" stop-color="#683549"/>
<stop offset="0.6351" stop-color="#3F4468"/>
<stop offset="0.9635" stop-color="#065993"/>
<stop offset="0.9944" stop-color="#005B97"/>
</linearGradient>
</defs>
</svg>