<svg xmlns="http://www.w3.org/2000/svg" fill="none" viewBox="31 17 87 143">
<g filter="url(#filter0_d_1271_509)">
<rect x="31" y="17" width="87" height="143" rx="15" fill="#1C1A32"/>
<rect x="32" y="18" width="85" height="141" rx="14" stroke="url(#paint0_linear_1271_509)" stroke-width="2"/>
</g>
<path d="M49.7976 127.16C46.4696 127.16 44.2616 124.984 44.2616 121.64C44.2616 118.296 46.4696 116.12 49.7976 116.12C52.8216 116.12 54.9336 117.72 54.9336 120.28V120.504H53.0296V120.28C53.0296 118.648 51.9896 117.768 49.8136 117.768C47.3016 117.768 46.0856 118.968 46.0856 121.64C46.0856 124.312 47.3016 125.496 49.8136 125.496C51.9896 125.496 53.0296 124.632 53.0296 122.984V122.776H54.9336V122.984C54.9336 125.56 52.8376 127.16 49.7976 127.16ZM59.7906 127.16C57.1506 127.16 55.3746 125.48 55.3746 123.032C55.3746 120.552 57.1506 118.888 59.7906 118.888C62.4466 118.888 64.2226 120.552 64.2226 123.032C64.2226 125.48 62.4466 127.16 59.7906 127.16ZM59.7906 125.624C61.7266 125.624 62.5266 124.712 62.5266 123.032C62.5266 121.336 61.7266 120.408 59.7906 120.408C57.8706 120.408 57.0706 121.336 57.0706 123.032C57.0706 124.712 57.8706 125.624 59.7906 125.624ZM66.7246 127H64.9966V119.048H66.5806V121.512H66.6926C66.9326 120.168 67.9886 118.888 70.0046 118.888C72.2126 118.888 73.3006 120.376 73.3006 122.216V127H71.5726V122.68C71.5726 121.192 70.9006 120.44 69.2526 120.44C67.5086 120.44 66.7246 121.336 66.7246 123.064V127ZM79.5763 127H77.7523C76.0403 127 74.9843 126.248 74.9843 124.312V120.488H73.6403V119.048H74.9843V117.304H76.6963V119.048H79.5763V120.488H76.6963V124.216C76.6963 125.192 77.1443 125.448 78.1363 125.448H79.5763V127ZM84.1772 127.16C81.5692 127.16 79.8572 125.688 79.8572 123.032C79.8572 120.552 81.5532 118.888 84.1452 118.888C86.6092 118.888 88.2892 120.248 88.2892 122.664C88.2892 122.952 88.2732 123.176 88.2252 123.416H81.4732C81.5372 124.952 82.2892 125.768 84.1292 125.768C85.7932 125.768 86.4812 125.224 86.4812 124.28V124.152H88.2092V124.296C88.2092 125.992 86.5452 127.16 84.1772 127.16ZM84.1132 120.248C82.3532 120.248 81.5852 121.032 81.4892 122.456H86.6572V122.424C86.6572 120.952 85.8092 120.248 84.1132 120.248ZM90.8314 127H89.1034V119.048H90.6874V121.512H90.7994C91.0394 120.168 92.0954 118.888 94.1114 118.888C96.3194 118.888 97.4074 120.376 97.4074 122.216V127H95.6794V122.68C95.6794 121.192 95.0074 120.44 93.3594 120.44C91.6154 120.44 90.8314 121.336 90.8314 123.064V127ZM103.683 127H101.859C100.147 127 99.0912 126.248 99.0912 124.312V120.488H97.7472V119.048H99.0912V117.304H100.803V119.048H103.683V120.488H100.803V124.216C100.803 125.192 101.251 125.448 102.243 125.448H103.683V127ZM42.3478 147H40.4278L45.2118 136.28H47.6438L52.4278 147H50.4758L49.2438 144.216H43.5798L42.3478 147ZM45.7238 139.4L44.2678 142.664H48.5558L47.0998 139.4L46.4758 137.88H46.3478L45.7238 139.4ZM56.5078 147.16C53.9478 147.16 52.4918 146.152 52.4918 144.312V144.264H54.2198V144.392C54.2198 145.432 54.8438 145.768 56.5078 145.768C58.0598 145.768 58.5238 145.448 58.5238 144.744C58.5238 144.088 58.1398 143.88 57.0038 143.72L54.8278 143.432C53.3238 143.24 52.4118 142.6 52.4118 141.272C52.4118 139.88 53.6758 138.888 56.1238 138.888C58.5558 138.888 60.0278 139.864 60.0278 141.752V141.8H58.3158V141.704C58.3158 140.76 57.8358 140.264 56.0758 140.264C54.6198 140.264 54.1078 140.584 54.1078 141.336C54.1078 141.96 54.4278 142.184 55.6278 142.344L57.4678 142.6C59.3558 142.84 60.2198 143.48 60.2198 144.792C60.2198 146.28 58.7478 147.16 56.5078 147.16ZM64.7466 147.16C62.1866 147.16 60.7306 146.152 60.7306 144.312V144.264H62.4586V144.392C62.4586 145.432 63.0826 145.768 64.7466 145.768C66.2986 145.768 66.7626 145.448 66.7626 144.744C66.7626 144.088 66.3786 143.88 65.2426 143.72L63.0666 143.432C61.5626 143.24 60.6506 142.6 60.6506 141.272C60.6506 139.88 61.9146 138.888 64.3626 138.888C66.7946 138.888 68.2666 139.864 68.2666 141.752V141.8H66.5546V141.704C66.5546 140.76 66.0746 140.264 64.3146 140.264C62.8586 140.264 62.3466 140.584 62.3466 141.336C62.3466 141.96 62.6666 142.184 63.8666 142.344L65.7066 142.6C67.5946 142.84 68.4586 143.48 68.4586 144.792C68.4586 146.28 66.9866 147.16 64.7466 147.16ZM70.9533 138.12H69.2253V136.28H70.9533V138.12ZM70.9533 147H69.2253V139.048H70.9533V147ZM75.8334 147.16C73.2734 147.16 71.8174 146.152 71.8174 144.312V144.264H73.5454V144.392C73.5454 145.432 74.1694 145.768 75.8334 145.768C77.3854 145.768 77.8494 145.448 77.8494 144.744C77.8494 144.088 77.4654 143.88 76.3294 143.72L74.1534 143.432C72.6494 143.24 71.7374 142.6 71.7374 141.272C71.7374 139.88 73.0014 138.888 75.4494 138.888C77.8814 138.888 79.3534 139.864 79.3534 141.752V141.8H77.6414V141.704C77.6414 140.76 77.1614 140.264 75.4014 140.264C73.9454 140.264 73.4334 140.584 73.4334 141.336C73.4334 141.96 73.7534 142.184 74.9534 142.344L76.7934 142.6C78.6814 142.84 79.5454 143.48 79.5454 144.792C79.5454 146.28 78.0734 147.16 75.8334 147.16ZM85.5282 147H83.7042C81.9922 147 80.9362 146.248 80.9362 144.312V140.488H79.5922V139.048H80.9362V137.304H82.6482V139.048H85.5282V140.488H82.6482V144.216C82.6482 145.192 83.0962 145.448 84.0882 145.448H85.5282V147ZM88.4651 147.16C86.8171 147.16 85.7771 146.392 85.7771 145.08C85.7771 143.848 86.7691 143.208 88.3371 143.032L91.9531 142.648V142.184C91.9531 140.872 91.3771 140.408 89.8571 140.408C88.3851 140.408 87.6651 140.888 87.6651 142.056V142.12H85.9531V142.056C85.9531 140.248 87.4571 138.888 89.9851 138.888C92.5131 138.888 93.6491 140.264 93.6491 142.168V147H92.0651V145.016H91.9531C91.5371 146.36 90.2731 147.16 88.4651 147.16ZM87.5051 144.968C87.5051 145.608 87.9371 145.912 88.9291 145.912C90.7371 145.912 91.9531 145.24 91.9531 143.672L88.8331 144.024C87.9371 144.136 87.5051 144.344 87.5051 144.968ZM96.4396 147H94.7116V139.048H96.2956V141.512H96.4076C96.6476 140.168 97.7036 138.888 99.7196 138.888C101.928 138.888 103.016 140.376 103.016 142.216V147H101.288V142.68C101.288 141.192 100.616 140.44 98.9676 140.44C97.2236 140.44 96.4396 141.336 96.4396 143.064V147ZM109.291 147H107.467C105.755 147 104.699 146.248 104.699 144.312V140.488H103.355V139.048H104.699V137.304H106.411V139.048H109.291V140.488H106.411V144.216C106.411 145.192 106.859 145.448 107.851 145.448H109.291V147Z" fill="#C0BCDC"/>
<path fill-rule="evenodd" clip-rule="evenodd" d="M70.5105 101.375C70.925 104.027 73.2049 106 75.9653 106C78.7268 106 81.0078 104.027 81.3505 101.375C85.0117 101.171 87.845 98.2428 87.845 94.6384H64.0184C64.0184 98.2428 66.92 101.171 70.5105 101.375ZM102 51.5781C102 37.4984 90.3981 26 76.0347 26C61.6725 26 50 37.4984 50 51.5781C50 57.5629 52.0714 63.0755 55.5925 67.4269C58.6308 71.2366 61.5335 75.3872 64.0172 79.5356V93.0724H66.5726V69.9454C60.2205 66.6125 55.8681 60.013 55.8681 52.3937C55.8681 41.4416 64.9157 32.5311 76.0336 32.5311C87.1515 32.5311 96.1285 41.4416 96.1285 52.3937C96.1285 60.013 91.7783 66.6125 85.4262 69.9454V93.0735H87.8439V79.8094C90.3287 75.7294 93.573 71.0346 96.4735 67.4281C99.9274 63.0755 102 57.5629 102 51.5781ZM94.4021 52.3937C94.4021 42.3929 86.1858 34.3002 76.0347 34.3002C65.8825 34.3002 57.5956 42.394 57.5956 52.3937C57.5956 58.9932 61.2591 64.775 66.5726 67.9744V57.5629H65.3986C67.2639 54.4342 69.0609 51.374 70.9239 48.3137L75.8275 40.2188L80.7299 48.3137C82.6647 51.5781 84.4583 54.5027 86.2553 57.5629H85.4274V67.9744C90.8127 64.7739 94.4021 58.9932 94.4021 52.3937ZM83.3548 57.5629V93.0735H68.7147V57.5629H83.3548ZM78.244 48.3137L79.2119 49.8775L82.5952 55.4562H75.8298H69.0631L72.4464 49.8775L73.411 48.3137H78.244ZM75.8286 44.2304L76.4492 45.2523L77.0027 46.2036H75.8286H74.6545L75.208 45.2523L75.8286 44.2304Z" fill="url(#paint1_linear_1271_509)"/>
<defs>
<filter id="filter0_d_1271_509" x="0" y="0" width="149" height="205" filterUnits="userSpaceOnUse" color-interpolation-filters="sRGB">
<feFlood flood-opacity="0" result="BackgroundImageFix"/>
<feColorMatrix in="SourceAlpha" type="matrix" values="0 0 0 0 0 0 0 0 0 0 0 0 0 0 0 0 0 0 127 0" result="hardAlpha"/>
<feMorphology radius="2" operator="dilate" in="SourceAlpha" result="effect1_dropShadow_1271_509"/>
<feOffset dy="14"/>
<feGaussianBlur stdDeviation="14.5"/>
<feComposite in2="hardAlpha" operator="out"/>
<feColorMatrix type="matrix" values="0 0 0 0 0.592157 0 0 0 0 0.278431 0 0 0 0 1 0 0 0 0.2 0"/>
<feBlend mode="normal" in2="BackgroundImageFix" result="effect1_dropShadow_1271_509"/>
<feBlend mode="normal" in="SourceGraphic" in2="effect1_dropShadow_1271_509" result="shape"/>
</filter>
<linearGradient id="paint0_linear_1271_509" x1="57.25" y1="-7.51424" x2="82.2873" y2="-6.75007" gradientUnits="userSpaceOnUse">
<stop stop-color="#8C292F"/>
<stop offset="1" stop-color="#4A4588"/>
</linearGradient>
<linearGradient id="paint1_linear_1271_509" x1="50.0008" y1="65.9999" x2="102" y2="65.9999" gradientUnits="userSpaceOnUse">
<stop stop-color="#C32F38"/>
<stop offset="0.9635" stop-color="#4A4588"/>
</linearGradient>
</defs>
</svg>