<svg xmlns="http://www.w3.org/2000/svg" fill="none" viewBox="31 17 87 143">
<g filter="url(#filter0_d_1271_553)">
<rect x="31" y="17" width="87" height="143" rx="15" fill="#1C1A32"/>
<rect x="32" y="18" width="85" height="141" rx="14" stroke="url(#paint0_linear_1271_553)" stroke-width="2"/>
</g>
<path d="M63.7829 127.16C60.4549 127.16 58.2469 124.984 58.2469 121.64C58.2469 118.296 60.4549 116.12 63.7829 116.12C66.8069 116.12 68.9189 117.72 68.9189 120.28V120.504H67.0149V120.28C67.0149 118.648 65.9749 117.768 63.7989 117.768C61.2869 117.768 60.0709 118.968 60.0709 121.64C60.0709 124.312 61.2869 125.496 63.7989 125.496C65.9749 125.496 67.0149 124.632 67.0149 122.984V122.776H68.9189V122.984C68.9189 125.56 66.8229 127.16 63.7829 127.16ZM71.4399 127H69.7119V116.28H71.4399V121.48H71.5359C71.8079 120.136 72.7839 118.888 74.8159 118.888C77.0079 118.888 78.0799 120.328 78.0799 122.264V127H76.3679V122.68C76.3679 121.08 75.6479 120.44 73.9999 120.44C72.1119 120.44 71.4399 121.464 71.4399 123.144V127ZM81.4898 127.16C79.8418 127.16 78.8018 126.392 78.8018 125.08C78.8018 123.848 79.7938 123.208 81.3618 123.032L84.9778 122.648V122.184C84.9778 120.872 84.4018 120.408 82.8818 120.408C81.4098 120.408 80.6898 120.888 80.6898 122.056V122.12H78.9778V122.056C78.9778 120.248 80.4818 118.888 83.0098 118.888C85.5378 118.888 86.6738 120.264 86.6738 122.168V127H85.0898V125.016H84.9778C84.5618 126.36 83.2978 127.16 81.4898 127.16ZM80.5298 124.968C80.5298 125.608 80.9618 125.912 81.9538 125.912C83.7618 125.912 84.9778 125.24 84.9778 123.672L81.8578 124.024C80.9618 124.136 80.5298 124.344 80.5298 124.968ZM92.9522 127H91.1282C89.4162 127 88.3602 126.248 88.3602 124.312V120.488H87.0162V119.048H88.3602V117.304H90.0722V119.048H92.9522V120.488H90.0722V124.216C90.0722 125.192 90.5202 125.448 91.5122 125.448H92.9522V127ZM50.9602 147H49.2322V136.28H50.9602V140.824H57.2642V136.28H58.9762V147H57.2642V142.376H50.9602V147ZM61.8396 138.12H60.1116V136.28H61.8396V138.12ZM61.8396 147H60.1116V139.048H61.8396V147ZM66.7197 147.16C64.1597 147.16 62.7037 146.152 62.7037 144.312V144.264H64.4317V144.392C64.4317 145.432 65.0557 145.768 66.7197 145.768C68.2717 145.768 68.7357 145.448 68.7357 144.744C68.7357 144.088 68.3517 143.88 67.2157 143.72L65.0397 143.432C63.5357 143.24 62.6237 142.6 62.6237 141.272C62.6237 139.88 63.8877 138.888 66.3357 138.888C68.7677 138.888 70.2397 139.864 70.2397 141.752V141.8H68.5277V141.704C68.5277 140.76 68.0477 140.264 66.2877 140.264C64.8317 140.264 64.3197 140.584 64.3197 141.336C64.3197 141.96 64.6397 142.184 65.8397 142.344L67.6797 142.6C69.5677 142.84 70.4317 143.48 70.4317 144.792C70.4317 146.28 68.9597 147.16 66.7197 147.16ZM76.4144 147H74.5904C72.8784 147 71.8224 146.248 71.8224 144.312V140.488H70.4784V139.048H71.8224V137.304H73.5344V139.048H76.4144V140.488H73.5344V144.216C73.5344 145.192 73.9824 145.448 74.9744 145.448H76.4144V147ZM81.0793 147.16C78.4393 147.16 76.6633 145.48 76.6633 143.032C76.6633 140.552 78.4393 138.888 81.0793 138.888C83.7353 138.888 85.5113 140.552 85.5113 143.032C85.5113 145.48 83.7353 147.16 81.0793 147.16ZM81.0793 145.624C83.0153 145.624 83.8153 144.712 83.8153 143.032C83.8153 141.336 83.0153 140.408 81.0793 140.408C79.1593 140.408 78.3593 141.336 78.3593 143.032C78.3593 144.712 79.1593 145.624 81.0793 145.624ZM88.0133 147H86.2853V139.048H87.8693V141.192H87.9813C88.2213 139.912 89.0853 138.888 90.7173 138.888C92.5253 138.888 93.3093 140.184 93.3093 141.688V142.728H91.5973V142.024C91.5973 140.888 91.1173 140.36 89.9333 140.36C88.5733 140.36 88.0133 141.112 88.0133 142.536V147ZM95.1947 149.72H94.0587V148.152H95.6107C96.3147 148.152 96.6027 147.96 96.8427 147.416L97.0347 147L93.1147 139.048H95.0507L97.0827 143.272L97.8667 145.176H97.9947L98.7467 143.256L100.619 139.048H102.523L98.3787 147.864C97.7227 149.288 96.8267 149.72 95.1947 149.72Z" fill="#C0BCDC"/>
<path fill-rule="evenodd" clip-rule="evenodd" d="M109.692 48.2797C109.384 47.7657 109.18 47.2533 108.663 46.8436C108.356 46.4333 107.844 46.125 107.331 45.9201C106.819 45.7158 106.307 45.6123 105.691 45.6123H73.0757C72.4607 45.6123 71.9482 45.7158 71.4358 45.9201C70.9239 46.125 70.4079 46.433 69.9981 46.8432C69.5879 47.253 69.3043 47.7655 69.0994 48.2796C68.8952 48.7941 68.8164 49.3063 68.8164 49.9213V51.3565V53.1962H70.7185H70.8212H72.7831V51.3564V49.9212C72.7831 49.8191 72.7831 49.8191 72.7831 49.8191C72.7831 49.7164 72.7681 49.6959 72.8703 49.5792C72.8703 49.5792 72.8703 49.5792 72.973 49.5792C72.973 49.5792 72.973 49.4625 73.0757 49.4625H105.691L105.794 49.5792H105.897C106 49.6959 106.033 49.7164 106.033 49.8191C106.033 49.8191 106.033 49.8191 106.033 49.9212V72.7938V72.8966C106.033 72.8966 106.016 73.0221 105.914 73.0221C105.914 73.0221 105.897 73.1472 105.794 73.1472H105.692H102.102H102H100.083V74.9479V75.0495V80.3844L93.2689 73.7167L90.0497 70.536V75.0494V75.3576V76.0764L90.609 76.6925L98.4497 84.3842V84.4869L98.6347 84.5885C98.7374 84.6912 98.9326 84.794 99.0354 84.794C99.138 84.8966 99.3372 85.1021 99.5416 85.1021C99.7471 85.2037 99.9497 85.3008 100.154 85.3008C100.359 85.4035 100.561 85.3979 100.767 85.3979C100.869 85.3979 100.972 85.3979 101.075 85.3979C101.279 85.3979 101.385 85.3008 101.385 85.3008C101.488 85.3008 101.59 85.3035 101.693 85.201C101.795 85.201 102 85.2024 102 85.1008C102.307 84.997 102.615 84.7934 102.819 84.6906C103.024 84.4863 103.332 84.1796 103.537 83.9742C103.64 83.6661 103.742 83.3592 103.845 83.049C103.947 82.744 104.05 82.434 104.05 82.1271V76.9974H105.692C106.307 76.9974 106.819 76.9094 107.331 76.8078C107.639 76.6025 107.844 76.5307 108.049 76.414H108.151L108.663 75.7831C109.18 75.3724 109.384 74.9553 109.692 74.4413C109.897 73.9289 110 73.3063 110 72.7939V49.9212C110 49.3061 109.897 48.7942 109.692 48.2797Z" fill="url(#paint1_linear_1271_553)"/>
<path fill-rule="evenodd" clip-rule="evenodd" d="M84.87 55.4127H42.8193C41.1795 55.4127 39.8833 56.7939 39.8833 58.4339V87.8717C39.8833 89.5116 41.1795 90.8815 42.8193 90.8815H67.0262L77.383 101.121C77.6901 101.429 78.0998 101.623 78.5136 101.623C78.7179 101.623 78.9132 101.516 79.1187 101.516C79.7327 101.311 80.1332 100.692 80.1332 99.974V90.8815H84.8699C86.5129 90.8815 87.8332 89.5116 87.8332 87.8717V58.4339C87.8333 56.7939 86.513 55.4127 84.87 55.4127ZM75.4362 78.2807H53.3843C52.565 78.2807 51.8471 77.6942 51.8471 76.8735C51.8471 76.0541 52.5649 75.3638 53.3843 75.3638H75.4363C76.2556 75.3638 76.9725 76.0541 76.9725 76.8735C76.9723 77.6942 76.2557 78.2807 75.4362 78.2807ZM75.4362 69.9969H53.3843C52.565 69.9969 51.8471 69.3017 51.8471 68.4822C51.8471 67.6601 52.5649 66.9634 53.3843 66.9634H75.4363C76.2556 66.9634 76.9725 67.6601 76.9725 68.4822C76.9723 69.3017 76.2557 69.9969 75.4362 69.9969Z" fill="url(#paint2_linear_1271_553)"/>
<defs>
<filter id="filter0_d_1271_553" x="0" y="0" width="149" height="205" filterUnits="userSpaceOnUse" color-interpolation-filters="sRGB">
<feFlood flood-opacity="0" result="BackgroundImageFix"/>
<feColorMatrix in="SourceAlpha" type="matrix" values="0 0 0 0 0 0 0 0 0 0 0 0 0 0 0 0 0 0 127 0" result="hardAlpha"/>
<feMorphology radius="2" operator="dilate" in="SourceAlpha" result="effect1_dropShadow_1271_553"/>
<feOffset dy="14"/>
<feGaussianBlur stdDeviation="14.5"/>
<feComposite in2="hardAlpha" operator="out"/>
<feColorMatrix type="matrix" values="0 0 0 0 0.592157 0 0 0 0 0.278431 0 0 0 0 1 0 0 0 0.2 0"/>
<feBlend mode="normal" in2="BackgroundImageFix" result="effect1_dropShadow_1271_553"/>
<feBlend mode="normal" in="SourceGraphic" in2="effect1_dropShadow_1271_553" result="shape"/>
</filter>
<linearGradient id="paint0_linear_1271_553" x1="57.25" y1="-7.51424" x2="82.2873" y2="-6.75007" gradientUnits="userSpaceOnUse">
<stop stop-color="#8C292F"/>
<stop offset="1" stop-color="#4A4588"/>
</linearGradient>
<linearGradient id="paint1_linear_1271_553" x1="39.6123" y1="65.6027" x2="110.047" y2="65.4577" gradientUnits="userSpaceOnUse">
<stop stop-color="#8B282F"/>
<stop offset="0.1328" stop-color="#822B36"/>
<stop offset="0.3536" stop-color="#683549"/>
<stop offset="0.6351" stop-color="#3F4468"/>
<stop offset="0.9635" stop-color="#065993"/>
<stop offset="0.9944" stop-color="#005B97"/>
</linearGradient>
<linearGradient id="paint2_linear_1271_553" x1="39.6392" y1="78.5613" x2="110.074" y2="78.4164" gradientUnits="userSpaceOnUse">
<stop stop-color="#8B282F"/>
<stop offset="0.1328" stop-color="#822B36"/>
<stop offset="0.3536" stop-color="#683549"/>
<stop offset="0.6351" stop-color="#3F4468"/>
<stop offset="0.9635" stop-color="#065993"/>
<stop offset="0.9944" stop-color="#005B97"/>
</linearGradient>
</defs>
</svg>