<svg xmlns="http://www.w3.org/2000/svg" fill="none" viewBox="31 17 87 143">
<g filter="url(#filter0_d_1271_519)">
<rect x="31" y="17" width="87" height="143" rx="15" fill="#1C1A32"/>
<rect x="32" y="18" width="85" height="141" rx="14" stroke="url(#paint0_linear_1271_519)" stroke-width="2"/>
</g>
<path d="M59.7612 127H57.3132L52.7372 116.28H54.7852L58.4972 125.256H58.6252L62.3052 116.28H64.3372L59.7612 127ZM66.3183 118.12H64.5903V116.28H66.3183V118.12ZM66.3183 127H64.5903V119.048H66.3183V127ZM70.9424 127.16C68.4304 127.16 67.0384 125.48 67.0384 123.032C67.0384 120.552 68.4144 118.888 70.8304 118.888C72.7184 118.888 73.7904 119.864 74.1104 121.208H74.2064V116.28H75.9344V127H74.3504V124.712H74.2384C73.9024 126.296 72.7344 127.16 70.9424 127.16ZM68.7824 123.032C68.7824 124.936 69.7584 125.576 71.4704 125.576C73.1664 125.576 74.2064 124.776 74.2064 123.112V122.984C74.2064 121.288 73.2144 120.456 71.4384 120.456C69.7744 120.456 68.7824 121.112 68.7824 123.032ZM81.0522 127.16C78.4442 127.16 76.7322 125.688 76.7322 123.032C76.7322 120.552 78.4282 118.888 81.0202 118.888C83.4842 118.888 85.1642 120.248 85.1642 122.664C85.1642 122.952 85.1482 123.176 85.1002 123.416H78.3482C78.4122 124.952 79.1642 125.768 81.0042 125.768C82.6682 125.768 83.3562 125.224 83.3562 124.28V124.152H85.0842V124.296C85.0842 125.992 83.4202 127.16 81.0522 127.16ZM80.9882 120.248C79.2282 120.248 78.4602 121.032 78.3642 122.456H83.5322V122.424C83.5322 120.952 82.6842 120.248 80.9882 120.248ZM90.0424 127.16C87.4024 127.16 85.6264 125.48 85.6264 123.032C85.6264 120.552 87.4024 118.888 90.0424 118.888C92.6984 118.888 94.4744 120.552 94.4744 123.032C94.4744 125.48 92.6984 127.16 90.0424 127.16ZM90.0424 125.624C91.9784 125.624 92.7784 124.712 92.7784 123.032C92.7784 121.336 91.9784 120.408 90.0424 120.408C88.1224 120.408 87.3224 121.336 87.3224 123.032C87.3224 124.712 88.1224 125.624 90.0424 125.624ZM42.3478 147H40.4278L45.2118 136.28H47.6438L52.4278 147H50.4758L49.2438 144.216H43.5798L42.3478 147ZM45.7238 139.4L44.2678 142.664H48.5558L47.0998 139.4L46.4758 137.88H46.3478L45.7238 139.4ZM56.5078 147.16C53.9478 147.16 52.4918 146.152 52.4918 144.312V144.264H54.2198V144.392C54.2198 145.432 54.8438 145.768 56.5078 145.768C58.0598 145.768 58.5238 145.448 58.5238 144.744C58.5238 144.088 58.1398 143.88 57.0038 143.72L54.8278 143.432C53.3238 143.24 52.4118 142.6 52.4118 141.272C52.4118 139.88 53.6758 138.888 56.1238 138.888C58.5558 138.888 60.0278 139.864 60.0278 141.752V141.8H58.3158V141.704C58.3158 140.76 57.8358 140.264 56.0758 140.264C54.6198 140.264 54.1078 140.584 54.1078 141.336C54.1078 141.96 54.4278 142.184 55.6278 142.344L57.4678 142.6C59.3558 142.84 60.2198 143.48 60.2198 144.792C60.2198 146.28 58.7478 147.16 56.5078 147.16ZM64.7466 147.16C62.1866 147.16 60.7306 146.152 60.7306 144.312V144.264H62.4586V144.392C62.4586 145.432 63.0826 145.768 64.7466 145.768C66.2986 145.768 66.7626 145.448 66.7626 144.744C66.7626 144.088 66.3786 143.88 65.2426 143.72L63.0666 143.432C61.5626 143.24 60.6506 142.6 60.6506 141.272C60.6506 139.88 61.9146 138.888 64.3626 138.888C66.7946 138.888 68.2666 139.864 68.2666 141.752V141.8H66.5546V141.704C66.5546 140.76 66.0746 140.264 64.3146 140.264C62.8586 140.264 62.3466 140.584 62.3466 141.336C62.3466 141.96 62.6666 142.184 63.8666 142.344L65.7066 142.6C67.5946 142.84 68.4586 143.48 68.4586 144.792C68.4586 146.28 66.9866 147.16 64.7466 147.16ZM70.9533 138.12H69.2253V136.28H70.9533V138.12ZM70.9533 147H69.2253V139.048H70.9533V147ZM75.8334 147.16C73.2734 147.16 71.8174 146.152 71.8174 144.312V144.264H73.5454V144.392C73.5454 145.432 74.1694 145.768 75.8334 145.768C77.3854 145.768 77.8494 145.448 77.8494 144.744C77.8494 144.088 77.4654 143.88 76.3294 143.72L74.1534 143.432C72.6494 143.24 71.7374 142.6 71.7374 141.272C71.7374 139.88 73.0014 138.888 75.4494 138.888C77.8814 138.888 79.3534 139.864 79.3534 141.752V141.8H77.6414V141.704C77.6414 140.76 77.1614 140.264 75.4014 140.264C73.9454 140.264 73.4334 140.584 73.4334 141.336C73.4334 141.96 73.7534 142.184 74.9534 142.344L76.7934 142.6C78.6814 142.84 79.5454 143.48 79.5454 144.792C79.5454 146.28 78.0734 147.16 75.8334 147.16ZM85.5282 147H83.7042C81.9922 147 80.9362 146.248 80.9362 144.312V140.488H79.5922V139.048H80.9362V137.304H82.6482V139.048H85.5282V140.488H82.6482V144.216C82.6482 145.192 83.0962 145.448 84.0882 145.448H85.5282V147ZM88.4651 147.16C86.8171 147.16 85.7771 146.392 85.7771 145.08C85.7771 143.848 86.7691 143.208 88.3371 143.032L91.9531 142.648V142.184C91.9531 140.872 91.3771 140.408 89.8571 140.408C88.3851 140.408 87.6651 140.888 87.6651 142.056V142.12H85.9531V142.056C85.9531 140.248 87.4571 138.888 89.9851 138.888C92.5131 138.888 93.6491 140.264 93.6491 142.168V147H92.0651V145.016H91.9531C91.5371 146.36 90.2731 147.16 88.4651 147.16ZM87.5051 144.968C87.5051 145.608 87.9371 145.912 88.9291 145.912C90.7371 145.912 91.9531 145.24 91.9531 143.672L88.8331 144.024C87.9371 144.136 87.5051 144.344 87.5051 144.968ZM96.4396 147H94.7116V139.048H96.2956V141.512H96.4076C96.6476 140.168 97.7036 138.888 99.7196 138.888C101.928 138.888 103.016 140.376 103.016 142.216V147H101.288V142.68C101.288 141.192 100.616 140.44 98.9676 140.44C97.2236 140.44 96.4396 141.336 96.4396 143.064V147ZM109.291 147H107.467C105.755 147 104.699 146.248 104.699 144.312V140.488H103.355V139.048H104.699V137.304H106.411V139.048H109.291V140.488H106.411V144.216C106.411 145.192 106.859 145.448 107.851 145.448H109.291V147Z" fill="#C0BCDC"/>
<path fill-rule="evenodd" clip-rule="evenodd" d="M41 33H53.9306V98H41V33ZM97.132 33H53.9306V98H97.132V33ZM97.132 33H110V98H97.132V33ZM64.3032 54.2501H86.6905V76.7517H64.3032V54.2501ZM80.8509 65.5342L76.7115 67.9086L72.6409 70.2848V65.5333V60.7817L76.7115 63.1561L80.8509 65.5342ZM43.0348 36.6277H51.8967V44.4837H43.0348V36.6277ZM43.0348 46.5956H51.8967V54.4479H43.0348V46.5956ZM43.0348 56.6263H51.8967V64.4131H43.0348V56.6263ZM43.0348 66.5906H51.8967V74.442H43.0348V66.5906ZM43.0348 76.5539H51.8967V84.4063H43.0348V76.5539ZM43.0348 86.52H51.8967V94.3723H43.0348V86.52ZM99.0979 36.6277H108.029V44.4837H99.0979V36.6277ZM99.0979 46.5956H108.029V54.4479H99.0979V46.5956ZM99.0979 56.6263H108.029V64.4131H99.0979V56.6263ZM99.0979 66.5906H108.029V74.442H99.0979V66.5906ZM99.0979 76.5539H108.029V84.4063H99.0979V76.5539ZM99.0979 86.52H108.029V94.3723H99.0979V86.52Z" fill="url(#paint1_linear_1271_519)"/>
<defs>
<filter id="filter0_d_1271_519" x="0" y="0" width="149" height="205" filterUnits="userSpaceOnUse" color-interpolation-filters="sRGB">
<feFlood flood-opacity="0" result="BackgroundImageFix"/>
<feColorMatrix in="SourceAlpha" type="matrix" values="0 0 0 0 0 0 0 0 0 0 0 0 0 0 0 0 0 0 127 0" result="hardAlpha"/>
<feMorphology radius="2" operator="dilate" in="SourceAlpha" result="effect1_dropShadow_1271_519"/>
<feOffset dy="14"/>
<feGaussianBlur stdDeviation="14.5"/>
<feComposite in2="hardAlpha" operator="out"/>
<feColorMatrix type="matrix" values="0 0 0 0 0.592157 0 0 0 0 0.278431 0 0 0 0 1 0 0 0 0.2 0"/>
<feBlend mode="normal" in2="BackgroundImageFix" result="effect1_dropShadow_1271_519"/>
<feBlend mode="normal" in="SourceGraphic" in2="effect1_dropShadow_1271_519" result="shape"/>
</filter>
<linearGradient id="paint0_linear_1271_519" x1="57.25" y1="-7.51424" x2="82.2873" y2="-6.75007" gradientUnits="userSpaceOnUse">
<stop stop-color="#8C292F"/>
<stop offset="1" stop-color="#4A4588"/>
</linearGradient>
<linearGradient id="paint1_linear_1271_519" x1="41.0001" y1="65.5002" x2="110" y2="65.5002" gradientUnits="userSpaceOnUse">
<stop stop-color="#C32F37"/>
<stop offset="0.9944" stop-color="#4A4588"/>
</linearGradient>
</defs>
</svg>