<svg xmlns="http://www.w3.org/2000/svg" fill="none" viewBox="31 17 87 143">
<g filter="url(#filter0_d_1271_514)">
<rect x="31" y="17" width="87" height="143" rx="15" fill="#1C1A32"/>
<rect x="32" y="18" width="85" height="141" rx="14" stroke="url(#paint0_linear_1271_514)" stroke-width="2"/>
</g>
<path d="M51.2149 127.16C48.0629 127.16 45.9669 124.984 45.9669 121.64C45.9669 118.296 48.2229 116.12 51.6469 116.12C54.6869 116.12 56.7989 117.656 56.7989 120.136V120.264H54.8949V120.136C54.8949 118.6 53.8229 117.768 51.5989 117.768C49.0229 117.768 47.7909 118.968 47.7909 121.64C47.7909 124.312 49.0069 125.496 51.5189 125.496C54.0789 125.496 55.0869 124.792 55.0869 122.984V122.84H51.1189V121.528H56.7989V127H55.2309V124.68H55.1189C54.6709 126.248 53.3109 127.16 51.2149 127.16ZM59.5036 127H57.7756V119.048H59.3596V121.192H59.4716C59.7116 119.912 60.5756 118.888 62.2076 118.888C64.0156 118.888 64.7996 120.184 64.7996 121.688V122.728H63.0876V122.024C63.0876 120.888 62.6076 120.36 61.4236 120.36C60.0636 120.36 59.5036 121.112 59.5036 122.536V127ZM67.741 127.16C66.093 127.16 65.053 126.392 65.053 125.08C65.053 123.848 66.045 123.208 67.613 123.032L71.229 122.648V122.184C71.229 120.872 70.653 120.408 69.133 120.408C67.661 120.408 66.941 120.888 66.941 122.056V122.12H65.229V122.056C65.229 120.248 66.733 118.888 69.261 118.888C71.789 118.888 72.925 120.264 72.925 122.168V127H71.341V125.016H71.229C70.813 126.36 69.549 127.16 67.741 127.16ZM66.781 124.968C66.781 125.608 67.213 125.912 68.205 125.912C70.013 125.912 71.229 125.24 71.229 123.672L68.109 124.024C67.213 124.136 66.781 124.344 66.781 124.968ZM75.7155 129.72H73.9875V119.048H75.5715V121.256H75.7155C76.0355 119.784 77.1555 118.888 79.0275 118.888C81.4915 118.888 82.8835 120.568 82.8835 123.032C82.8835 125.496 81.5235 127.16 79.0435 127.16C77.2515 127.16 76.0995 126.216 75.7795 124.76H75.7155V129.72ZM75.7155 123.16C75.7155 124.792 76.7555 125.592 78.4515 125.592C80.1635 125.592 81.1555 124.936 81.1555 123.032C81.1555 121.112 80.1475 120.472 78.4835 120.472C76.7075 120.472 75.7155 121.304 75.7155 123.016V123.16ZM85.3293 127H83.6013V116.28H85.3293V121.48H85.4253C85.6973 120.136 86.6733 118.888 88.7053 118.888C90.8973 118.888 91.9693 120.328 91.9693 122.264V127H90.2573V122.68C90.2573 121.08 89.5373 120.44 87.8893 120.44C86.0013 120.44 85.3293 121.464 85.3293 123.144V127ZM94.7711 118.12H93.0431V116.28H94.7711V118.12ZM94.7711 127H93.0431V119.048H94.7711V127ZM99.9072 127.16C97.2832 127.16 95.5712 125.48 95.5712 123.032C95.5712 120.552 97.2832 118.888 99.9072 118.888C102.291 118.888 104.035 120.232 104.035 122.216V122.376H102.323V122.28C102.323 121.048 101.427 120.44 99.8752 120.44C98.0832 120.44 97.2832 121.288 97.2832 123.032C97.2832 124.744 98.0832 125.608 99.8752 125.608C101.427 125.608 102.323 125 102.323 123.768V123.656H104.035V123.832C104.035 125.816 102.291 127.16 99.9072 127.16ZM42.3478 147H40.4278L45.2118 136.28H47.6438L52.4278 147H50.4758L49.2438 144.216H43.5798L42.3478 147ZM45.7238 139.4L44.2678 142.664H48.5558L47.0998 139.4L46.4758 137.88H46.3478L45.7238 139.4ZM56.5078 147.16C53.9478 147.16 52.4918 146.152 52.4918 144.312V144.264H54.2198V144.392C54.2198 145.432 54.8438 145.768 56.5078 145.768C58.0598 145.768 58.5238 145.448 58.5238 144.744C58.5238 144.088 58.1398 143.88 57.0038 143.72L54.8278 143.432C53.3238 143.24 52.4118 142.6 52.4118 141.272C52.4118 139.88 53.6758 138.888 56.1238 138.888C58.5558 138.888 60.0278 139.864 60.0278 141.752V141.8H58.3158V141.704C58.3158 140.76 57.8358 140.264 56.0758 140.264C54.6198 140.264 54.1078 140.584 54.1078 141.336C54.1078 141.96 54.4278 142.184 55.6278 142.344L57.4678 142.6C59.3558 142.84 60.2198 143.48 60.2198 144.792C60.2198 146.28 58.7478 147.16 56.5078 147.16ZM64.7466 147.16C62.1866 147.16 60.7306 146.152 60.7306 144.312V144.264H62.4586V144.392C62.4586 145.432 63.0826 145.768 64.7466 145.768C66.2986 145.768 66.7626 145.448 66.7626 144.744C66.7626 144.088 66.3786 143.88 65.2426 143.72L63.0666 143.432C61.5626 143.24 60.6506 142.6 60.6506 141.272C60.6506 139.88 61.9146 138.888 64.3626 138.888C66.7946 138.888 68.2666 139.864 68.2666 141.752V141.8H66.5546V141.704C66.5546 140.76 66.0746 140.264 64.3146 140.264C62.8586 140.264 62.3466 140.584 62.3466 141.336C62.3466 141.96 62.6666 142.184 63.8666 142.344L65.7066 142.6C67.5946 142.84 68.4586 143.48 68.4586 144.792C68.4586 146.28 66.9866 147.16 64.7466 147.16ZM70.9533 138.12H69.2253V136.28H70.9533V138.12ZM70.9533 147H69.2253V139.048H70.9533V147ZM75.8334 147.16C73.2734 147.16 71.8174 146.152 71.8174 144.312V144.264H73.5454V144.392C73.5454 145.432 74.1694 145.768 75.8334 145.768C77.3854 145.768 77.8494 145.448 77.8494 144.744C77.8494 144.088 77.4654 143.88 76.3294 143.72L74.1534 143.432C72.6494 143.24 71.7374 142.6 71.7374 141.272C71.7374 139.88 73.0014 138.888 75.4494 138.888C77.8814 138.888 79.3534 139.864 79.3534 141.752V141.8H77.6414V141.704C77.6414 140.76 77.1614 140.264 75.4014 140.264C73.9454 140.264 73.4334 140.584 73.4334 141.336C73.4334 141.96 73.7534 142.184 74.9534 142.344L76.7934 142.6C78.6814 142.84 79.5454 143.48 79.5454 144.792C79.5454 146.28 78.0734 147.16 75.8334 147.16ZM85.5282 147H83.7042C81.9922 147 80.9362 146.248 80.9362 144.312V140.488H79.5922V139.048H80.9362V137.304H82.6482V139.048H85.5282V140.488H82.6482V144.216C82.6482 145.192 83.0962 145.448 84.0882 145.448H85.5282V147ZM88.4651 147.16C86.8171 147.16 85.7771 146.392 85.7771 145.08C85.7771 143.848 86.7691 143.208 88.3371 143.032L91.9531 142.648V142.184C91.9531 140.872 91.3771 140.408 89.8571 140.408C88.3851 140.408 87.6651 140.888 87.6651 142.056V142.12H85.9531V142.056C85.9531 140.248 87.4571 138.888 89.9851 138.888C92.5131 138.888 93.6491 140.264 93.6491 142.168V147H92.0651V145.016H91.9531C91.5371 146.36 90.2731 147.16 88.4651 147.16ZM87.5051 144.968C87.5051 145.608 87.9371 145.912 88.9291 145.912C90.7371 145.912 91.9531 145.24 91.9531 143.672L88.8331 144.024C87.9371 144.136 87.5051 144.344 87.5051 144.968ZM96.4396 147H94.7116V139.048H96.2956V141.512H96.4076C96.6476 140.168 97.7036 138.888 99.7196 138.888C101.928 138.888 103.016 140.376 103.016 142.216V147H101.288V142.68C101.288 141.192 100.616 140.44 98.9676 140.44C97.2236 140.44 96.4396 141.336 96.4396 143.064V147ZM109.291 147H107.467C105.755 147 104.699 146.248 104.699 144.312V140.488H103.355V139.048H104.699V137.304H106.411V139.048H109.291V140.488H106.411V144.216C106.411 145.192 106.859 145.448 107.851 145.448H109.291V147Z" fill="#C0BCDC"/>
<path fill-rule="evenodd" clip-rule="evenodd" d="M41 98.4741L41 89.7433L98.6275 89.7433L98.6275 98.4741C98.6275 102.614 95.2463 106 91.0203 106L48.6073 106C44.4604 106 41 102.614 41 98.4741ZM102.011 44.6635L108.769 44.6635C108.923 44.6635 109 44.8139 109 44.9633L109 105.774C109 105.85 108.923 105.999 108.769 105.999L102.011 105.999L102.011 44.6635ZM105.542 26.0757L107.309 35.3303L109 44.6626L105.543 44.6626L102.011 44.6635L103.776 35.3304L105.542 26.0757ZM105.542 26L105.85 27.6541L106.158 29.3109L105.542 29.3109L104.927 29.3109L105.235 27.6541L105.542 26ZM98.6275 89.7433L41 89.7433C41 68.5227 41 47.2207 41 26C60.2088 26 79.4196 26 98.6275 26C98.6275 47.2207 98.6275 68.5226 98.6275 89.7433ZM95.477 86.2802L44.1505 86.2802C44.1505 67.316 44.1505 48.4274 44.1505 29.4622C61.2844 29.4622 78.4194 29.4622 95.4761 29.4622C95.477 48.4274 95.477 67.3169 95.477 86.2802ZM50.684 101.788C50.684 100.581 51.6814 99.5295 52.9878 99.5295C54.2169 99.5295 55.2152 100.581 55.2152 101.788C55.2152 103.065 54.2169 104.042 52.9878 104.042C51.6814 104.042 50.684 103.065 50.684 101.788ZM86.6407 94.5617C86.6407 93.3587 87.64 92.3043 88.9473 92.3043C90.1764 92.3043 91.252 93.3587 91.252 94.5617C91.252 95.8403 90.1764 96.8191 88.9473 96.8191C87.64 96.8191 86.6407 95.8394 86.6407 94.5617ZM86.6407 101.788C86.6407 100.581 87.64 99.5295 88.9473 99.5295C90.1764 99.5295 91.252 100.581 91.252 101.788C91.252 103.065 90.1764 104.042 88.9473 104.042C87.64 104.042 86.6407 103.065 86.6407 101.788ZM79.4196 94.5617C79.4196 93.3587 80.4961 92.3043 81.7252 92.3043C83.0306 92.3043 84.028 93.3587 84.028 94.5617C84.028 95.8403 83.0306 96.8191 81.7252 96.8191C80.4961 96.8191 79.4196 95.8394 79.4196 94.5617ZM79.4196 101.788C79.4196 100.581 80.4961 99.5295 81.7252 99.5295C83.0306 99.5295 84.028 100.581 84.028 101.788C84.028 103.065 83.0306 104.042 81.7252 104.042C80.4961 104.042 79.4196 103.065 79.4196 101.788ZM57.8279 94.5617C57.8279 93.3587 58.9054 92.3043 60.1345 92.3043C61.438 92.3043 62.4382 93.3587 62.4382 94.5617C62.4382 95.8403 61.438 96.8191 60.1345 96.8191C58.9054 96.8191 57.8279 95.8394 57.8279 94.5617ZM57.8279 101.788C57.8279 100.581 58.9054 99.5295 60.1345 99.5295C61.438 99.5295 62.4382 100.581 62.4382 101.788C62.4382 103.065 61.438 104.042 60.1345 104.042C58.9054 104.042 57.8279 103.065 57.8279 101.788ZM50.684 94.5617C50.684 93.3587 51.6814 92.3043 52.9878 92.3043C54.2169 92.3043 55.2152 93.3587 55.2152 94.5617C55.2152 95.8403 54.2169 96.8191 52.9878 96.8191C51.6814 96.8191 50.684 95.8394 50.684 94.5617ZM53.0641 81.2396L53.0641 72.6592L61.8251 72.6592L61.8251 81.2396L53.0641 81.2396ZM58.9054 71.5319L58.9054 62.9525L67.5882 62.9525L67.5882 71.5319L58.9054 71.5319ZM64.6676 61.7486L64.6676 53.242L73.3504 53.242L73.3504 61.7486L64.6676 61.7486ZM70.4297 52.04L70.4297 43.5353L79.1898 43.5353L79.1898 52.04L70.4297 52.04ZM64.4339 104.571L64.4339 91.8513L77.421 91.8513L77.421 104.571L64.4339 104.571ZM66.7405 102.314L66.7405 94.0359L75.1926 94.0359L75.1926 102.314L66.7405 102.314ZM68.2004 100.882L68.2004 95.4648L73.7337 95.4648L73.7337 100.882L68.2004 100.882ZM89.0226 36.2354L89.0226 31.3404L94.0181 31.3404L94.0181 36.2354L89.0226 36.2354ZM89.0226 42.4799L89.0226 37.5906L94.0181 37.5906L94.0181 42.4799L89.0226 42.4799ZM89.0226 48.6534L89.0226 43.836L94.0181 43.836L94.0181 48.6534L89.0226 48.6534Z" fill="url(#paint1_linear_1271_514)"/>
<defs>
<filter id="filter0_d_1271_514" x="0" y="0" width="149" height="205" filterUnits="userSpaceOnUse" color-interpolation-filters="sRGB">
<feFlood flood-opacity="0" result="BackgroundImageFix"/>
<feColorMatrix in="SourceAlpha" type="matrix" values="0 0 0 0 0 0 0 0 0 0 0 0 0 0 0 0 0 0 127 0" result="hardAlpha"/>
<feMorphology radius="2" operator="dilate" in="SourceAlpha" result="effect1_dropShadow_1271_514"/>
<feOffset dy="14"/>
<feGaussianBlur stdDeviation="14.5"/>
<feComposite in2="hardAlpha" operator="out"/>
<feColorMatrix type="matrix" values="0 0 0 0 0.592157 0 0 0 0 0.278431 0 0 0 0 1 0 0 0 0.2 0"/>
<feBlend mode="normal" in2="BackgroundImageFix" result="effect1_dropShadow_1271_514"/>
<feBlend mode="normal" in="SourceGraphic" in2="effect1_dropShadow_1271_514" result="shape"/>
</filter>
<linearGradient id="paint0_linear_1271_514" x1="57.25" y1="-7.51424" x2="82.2873" y2="-6.75007" gradientUnits="userSpaceOnUse">
<stop stop-color="#8C292F"/>
<stop offset="1" stop-color="#4A4588"/>
</linearGradient>
<linearGradient id="paint1_linear_1271_514" x1="35.5" y1="66" x2="109" y2="66" gradientUnits="userSpaceOnUse">
<stop stop-color="#C32F37"/>
<stop offset="1" stop-color="#4A4588"/>
</linearGradient>
</defs>
</svg>