<svg width="23" height="23" viewBox="0 0 23 23" fill="none" xmlns="http://www.w3.org/2000/svg">
<g clip-path="url(#clip0_634_978)">
<path d="M12.6066 5.97285V4.32099L11.1416 3.47485L9.71777 4.32099V5.97285L10.4499 6.41606L11.1416 6.81898L11.8743 6.41606L12.6066 5.97285Z" fill="white"/>
<path d="M12.1593 6.85907L11.4268 7.26192V8.91382L12.8918 9.75991L14.3562 8.91382V7.26192L12.8918 6.41602L12.1593 6.85907Z" fill="white"/>
<path d="M9.43309 6.41602L7.96826 7.26192V8.91382L9.43309 9.75991L10.8979 8.91382V7.26192L10.1653 6.85907L9.43309 6.41602Z" fill="white"/>
<path d="M13.6241 19.1877H8.53776C8.13054 19.1877 7.76465 19.5099 7.76465 19.953C7.76465 20.3964 8.09002 20.7187 8.53776 20.7187H9.55481H12.6066H13.624C14.0308 20.7187 14.3967 20.3964 14.3967 19.953C14.3967 19.5099 14.0308 19.1877 13.6241 19.1877Z" fill="white"/>
<path d="M14.1528 17.1732H8.04947C7.64226 17.1732 7.27637 17.4954 7.27637 17.9385C7.27637 18.3819 7.60174 18.7041 8.04947 18.7041H8.57824H13.6641H14.1937C14.6005 18.7041 14.9664 18.3819 14.9664 17.9385C14.9665 17.4954 14.5596 17.1732 14.1528 17.1732Z" fill="white"/>
<path d="M9.7992 21.4437C9.7992 22.1287 10.3685 22.6925 11.0602 22.6925C11.7523 22.6925 12.3218 22.1287 12.3218 21.4437V21.2021H9.7583V21.4438H9.7992V21.4437Z" fill="white"/>
<path d="M16.6349 2.30652C15.1295 0.856103 13.1765 0.0100098 11.1012 0.0100098H11.0603C6.74738 0.0502981 3.24805 3.5555 3.24805 7.82618C3.24805 10.2836 4.38751 12.5401 6.34055 14.0304C7.15421 14.6753 7.68337 15.6019 7.80534 16.6492C7.8868 16.6492 7.96822 16.609 8.0902 16.609H10.8978V14.0709H10.6535C10.5315 14.0709 10.4096 13.9502 10.4096 13.8289C10.4096 13.7082 10.5316 13.5874 10.6535 13.5874H10.8978V13.3859C10.8978 12.983 10.5721 12.6203 10.1247 12.6203C10.0024 12.6203 9.88037 12.4995 9.88037 12.3786C9.88037 12.2579 10.0023 12.1371 10.1247 12.1371C10.5315 12.1371 10.8978 12.3385 11.1418 12.6607C11.3861 12.3385 11.7524 12.1371 12.1592 12.1371C12.281 12.1371 12.4029 12.2579 12.4029 12.3786C12.4029 12.4994 12.281 12.6203 12.1592 12.6203C11.7524 12.6203 11.3861 12.9429 11.3861 13.3859V13.6275H11.63C11.7524 13.6275 11.8744 13.7487 11.8744 13.8695C11.8744 13.9903 11.7524 14.111 11.63 14.111H11.3861V16.6492H14.1939C14.2749 16.6492 14.356 16.6492 14.478 16.6897C14.5598 15.642 15.0886 14.7154 15.9432 14.0304C17.8962 12.5401 19.0357 10.2837 19.0357 7.82618C18.9538 5.77143 18.1402 3.7973 16.6349 2.30652ZM5.11971 7.98729C5.11971 8.10804 4.99773 8.22906 4.8758 8.22906C4.75382 8.22906 4.63146 8.10808 4.63146 7.98729C4.63146 5.40884 6.17771 3.11229 8.53797 2.06475C8.65995 2.02443 8.82244 2.06475 8.86334 2.18573C8.90386 2.30652 8.86334 2.46764 8.74137 2.50796C6.50343 3.47484 5.11971 5.61028 5.11971 7.98729ZM15.4954 6.5772L14.8446 7.22185V9.075C14.8446 9.15565 14.8037 9.23631 14.7227 9.27644L13.1355 10.2032V10.8479C13.1355 10.9687 13.0135 11.0895 12.8916 11.0895C12.7697 11.0895 12.6476 10.9687 12.6476 10.8479V10.2032L11.1418 9.35713L9.55499 10.2837C9.51443 10.324 9.47353 10.324 9.43301 10.324C9.39211 10.324 9.35156 10.324 9.31066 10.2837L7.76479 9.39746L7.19508 9.96146C7.15418 10.0018 7.07272 10.0421 7.0322 10.0421C6.95074 10.0421 6.91022 10.0018 6.86928 9.96146C6.78825 9.88081 6.78825 9.71969 6.86928 9.5989L7.52045 8.95425V7.10083C7.52045 7.02037 7.56097 6.93972 7.64243 6.89939L9.22958 5.97284V4.15982C9.22958 4.07917 9.2701 3.99871 9.35156 3.95838L10.9383 3.03163V2.30652C10.9383 2.18573 11.0603 2.06475 11.1827 2.06475C11.3046 2.06475 11.4266 2.18573 11.4266 2.30652V3.03167L13.0135 3.95842C13.0946 3.99875 13.1355 4.07921 13.1355 4.15986V5.97288L14.5598 6.77864L15.1295 6.21464C15.2105 6.13399 15.3734 6.13399 15.4954 6.21464C15.5773 6.33539 15.5773 6.49655 15.4954 6.5772Z" fill="white"/>
<path d="M17.6923 17.4148C17.9851 17.4148 18.2219 17.6493 18.2219 17.9385C18.2219 18.2277 17.9851 18.4621 17.6923 18.4621C17.4004 18.4621 17.1636 18.2277 17.1636 17.9385C17.1636 17.6493 17.4004 17.4148 17.6923 17.4148Z" fill="white"/>
<path d="M21.2734 5.81177C21.5653 5.81177 21.8022 6.04625 21.8022 6.33544C21.8022 6.62482 21.5653 6.85911 21.2734 6.85911C20.9815 6.85911 20.7446 6.62482 20.7446 6.33544C20.7446 6.04629 20.9815 5.81177 21.2734 5.81177Z" fill="white"/>
<path d="M19.2388 1.29932C19.5315 1.29932 19.7683 1.5338 19.7683 1.82299C19.7683 2.11237 19.5315 2.34689 19.2388 2.34689C18.9469 2.34689 18.71 2.1124 18.71 1.82299C18.71 1.5338 18.9469 1.29932 19.2388 1.29932Z" fill="white"/>
<path d="M1.41695 3.79736C1.70928 3.79736 1.94615 4.03185 1.94615 4.32104C1.94615 4.61041 1.70928 4.84471 1.41695 4.84471C1.12505 4.84471 0.888184 4.61041 0.888184 4.32104C0.888145 4.03185 1.12505 3.79736 1.41695 3.79736Z" fill="white"/>
<path d="M1.94618 13.8695C2.23813 13.8695 2.47499 14.104 2.47499 14.3932C2.47499 14.6828 2.23813 14.9169 1.94618 14.9169C1.65428 14.9169 1.41699 14.6828 1.41699 14.3932C1.41699 14.104 1.65424 13.8695 1.94618 13.8695Z" fill="white"/>
<path d="M4.99756 15.8839C5.28989 15.8839 5.52675 16.1184 5.52675 16.4076C5.52675 16.6972 5.28989 16.9313 4.99756 16.9313C4.70561 16.9313 4.46875 16.6972 4.46875 16.4076C4.46875 16.1184 4.70561 15.8839 4.99756 15.8839Z" fill="white"/>
<path d="M5.48584 21.9272C5.77817 21.9272 6.01503 22.1617 6.01503 22.4509C6.01503 22.7401 5.77817 22.9746 5.48584 22.9746C5.19389 22.9746 4.95703 22.7401 4.95703 22.4509C4.95703 22.1617 5.19393 21.9272 5.48584 21.9272Z" fill="white"/>
<path d="M2.43425 18.6636C1.74256 18.6636 1.17285 19.2278 1.17285 19.9128C1.17285 20.5978 1.74256 21.1616 2.43425 21.1616C3.1259 21.1616 3.69565 20.5978 3.69565 19.9128C3.69565 19.2278 3.12593 18.6636 2.43425 18.6636Z" fill="white"/>
<path d="M20.5 13.6275C21.0697 13.6275 21.5175 13.1845 21.5175 12.6203C21.5175 12.0565 21.0697 11.6133 20.5 11.6133C19.9303 11.6133 19.4834 12.0565 19.4834 12.6203C19.4834 13.1845 19.9303 13.6275 20.5 13.6275Z" fill="white"/>
<path d="M20.256 19.1877C19.2794 19.1877 18.4658 19.9936 18.4658 20.9602C18.4658 21.9273 19.2795 22.7331 20.256 22.7331C21.2326 22.7331 22.0462 21.9273 22.0462 20.9602C22.0462 19.9935 21.2325 19.1877 20.256 19.1877Z" fill="white"/>
</g>
<defs>
<clipPath id="clip0_634_978">
<rect width="23" height="23" fill="white"/>
</clipPath>
</defs>
</svg>
