<svg width="23" height="23" viewBox="0 0 23 23" fill="none" xmlns="http://www.w3.org/2000/svg">
<path d="M11.4009 22.901C5.11447 22.901 0 17.7864 0 11.5001C0 5.21359 5.11447 0.098999 11.4009 0.098999C17.6875 0.098999 22.8019 5.21359 22.8019 11.5001C22.8019 17.7864 17.6875 22.901 11.4009 22.901ZM12.0806 16.0352C12.0378 16.0352 11.997 16.0518 11.9661 16.0817C11.9341 16.1127 11.916 16.1555 11.916 16.2V21.6263C11.916 21.6763 11.9388 21.7238 11.9779 21.755C12.0073 21.7785 12.0437 21.7909 12.0806 21.7909C12.0929 21.7909 12.1051 21.7896 12.1172 21.7867C13.8513 21.3923 15.4425 19.5367 16.3735 16.822C16.3883 16.7787 16.3844 16.731 16.3626 16.6906C16.3408 16.6503 16.3032 16.6206 16.2587 16.6092C14.9566 16.2747 13.5524 16.0815 12.0858 16.0352C12.084 16.0352 12.0823 16.0352 12.0806 16.0352ZM10.7161 16.0357C9.24864 16.0822 7.84469 16.2752 6.54331 16.6099C6.49877 16.6216 6.46116 16.6507 6.43939 16.6913C6.4175 16.7316 6.41366 16.7794 6.4285 16.823C7.35939 19.5366 8.95053 21.3922 10.6848 21.7866C10.6968 21.7896 10.709 21.7908 10.7213 21.7908C10.7583 21.7908 10.7946 21.7785 10.824 21.7549C10.8631 21.7238 10.8858 21.6762 10.8858 21.6263V16.2C10.8858 16.1555 10.8679 16.1129 10.8358 16.0817C10.805 16.052 10.764 16.0354 10.7213 16.0354C10.7195 16.0354 10.7177 16.0354 10.7161 16.0357ZM5.25995 17.0105C5.2409 17.0105 5.222 17.014 5.20406 17.0204C4.55273 17.256 3.95746 17.5291 3.43451 17.832C3.39269 17.8562 3.36364 17.8973 3.35486 17.945C3.34646 17.9928 3.35907 18.0415 3.38974 18.0789C4.38744 19.2915 5.66969 20.2782 7.09776 20.9323C7.11976 20.9425 7.14303 20.9475 7.16615 20.9475C7.21587 20.9475 7.2644 20.9247 7.29641 20.8836C7.34317 20.823 7.34218 20.7381 7.29395 20.6787C6.51893 19.7257 5.88712 18.5292 5.41593 17.1229C5.40182 17.0808 5.37138 17.0462 5.33155 17.0268C5.30894 17.016 5.28444 17.0105 5.25995 17.0105ZM17.5426 17.0091C17.5178 17.0091 17.4933 17.0145 17.4708 17.0254C17.431 17.0447 17.4006 17.0793 17.3865 17.1214C16.9151 18.5282 16.283 19.7252 15.5078 20.6787C15.4596 20.7381 15.4586 20.823 15.5056 20.8836C15.5375 20.9247 15.586 20.9475 15.6357 20.9475C15.6587 20.9475 15.6822 20.9425 15.7042 20.9323C17.1324 20.2779 18.4145 19.2915 19.4118 18.0791C19.4425 18.0417 19.4551 17.9928 19.4467 17.9453C19.438 17.8978 19.4091 17.8562 19.367 17.832C18.8388 17.5261 18.2438 17.2525 17.5985 17.0189C17.5804 17.0123 17.5614 17.0091 17.5426 17.0091ZM18.4056 12.0152C18.3168 12.0152 18.2438 12.0855 18.241 12.1741C18.1985 13.4403 18.0352 14.671 17.7553 15.8319C17.7358 15.9138 17.7811 15.9974 17.8605 16.0253C18.6525 16.3059 19.3703 16.636 19.9942 17.0066C20.0207 17.0224 20.0496 17.0299 20.0781 17.0299C20.1332 17.0299 20.1869 17.0021 20.2181 16.9522C21.1066 15.5202 21.6351 13.8738 21.7464 12.1904C21.7491 12.1451 21.7333 12.1003 21.7023 12.0672C21.6712 12.034 21.6276 12.0152 21.5821 12.0152H18.4056V12.0152ZM1.21988 12.0152C1.17434 12.0152 1.1308 12.034 1.09952 12.0671C1.06858 12.1003 1.05263 12.1451 1.05559 12.1904C1.16679 13.8733 1.69502 15.5196 2.58325 16.9514C2.61418 17.0016 2.66812 17.0293 2.72328 17.0293C2.75187 17.0293 2.78078 17.0219 2.80715 17.0061C3.43064 16.636 4.14866 16.3064 4.94136 16.0258C5.02078 15.9976 5.06617 15.914 5.04651 15.8318C4.76667 14.671 4.60326 13.4403 4.56082 12.174C4.55799 12.0854 4.48512 12.0151 4.39641 12.0151L1.21988 12.0152ZM5.7579 12.0152C5.71324 12.0152 5.67031 12.0335 5.63937 12.0657C5.60832 12.0978 5.59172 12.1414 5.59349 12.1859C5.63765 13.3304 5.79006 14.448 6.04651 15.5075C6.05678 15.5502 6.084 15.5874 6.12199 15.6099C6.14759 15.6255 6.17692 15.6334 6.20647 15.6334C6.22031 15.6334 6.2343 15.6314 6.24803 15.6279C7.6536 15.2617 9.1604 15.0524 10.7263 15.0049C10.8152 15.0025 10.8859 14.9297 10.8859 14.8407V12.1797C10.8859 12.0889 10.8123 12.0151 10.7213 12.0151L5.7579 12.0152ZM12.0806 12.0152C11.9895 12.0152 11.916 12.0889 11.916 12.1797V14.8407C11.916 14.9297 11.9868 15.0025 12.0756 15.005C13.6425 15.0522 15.1493 15.2618 16.5544 15.6275C16.568 15.6309 16.5819 15.6327 16.5957 15.6327C16.6254 15.6327 16.6546 15.6248 16.6803 15.6092C16.7181 15.5867 16.7453 15.5498 16.7558 15.5067C17.0118 14.4478 17.1642 13.3305 17.2083 12.1859C17.2103 12.1414 17.1937 12.0978 17.1626 12.0657C17.1316 12.0335 17.0885 12.0152 17.044 12.0152H12.0806ZM20.0781 5.97032C20.0496 5.97032 20.0207 5.97788 19.9942 5.99348C19.3707 6.36385 18.653 6.69402 17.8605 6.97473C17.7811 7.00295 17.7358 7.08655 17.7553 7.16847C18.0352 8.32924 18.1985 9.55974 18.241 10.8259C18.2438 10.9146 18.3168 10.985 18.4056 10.985H21.5821C21.6277 10.985 21.6712 10.9662 21.7024 10.933C21.7334 10.8997 21.7492 10.855 21.7464 10.8096C21.6351 9.12654 21.1066 7.48012 20.2181 6.04822C20.1869 5.998 20.1333 5.97032 20.0781 5.97032ZM16.5957 7.36746C16.5819 7.36746 16.568 7.3693 16.5544 7.37279C15.1501 7.73849 13.6433 7.94779 12.0757 7.99501C11.9869 7.99762 11.9161 8.07049 11.9161 8.15954V10.8204C11.9161 10.9113 11.9896 10.9849 12.0806 10.9849H17.044C17.0885 10.9849 17.1316 10.9668 17.1626 10.9345C17.1937 10.9023 17.2103 10.8587 17.2083 10.814C17.1643 9.66957 17.0118 8.55234 16.7558 7.49338C16.7454 7.45045 16.7182 7.41346 16.6803 7.39084C16.6546 7.37551 16.6254 7.36746 16.5957 7.36746ZM6.20644 7.36685C6.17688 7.36685 6.14756 7.37478 6.12195 7.39023C6.08396 7.41285 6.05674 7.44972 6.04647 7.49277C5.79002 8.55207 5.63761 9.66953 5.59345 10.814C5.59172 10.8587 5.60828 10.9023 5.63933 10.9345C5.67027 10.9668 5.7132 10.9849 5.75786 10.9849H10.7213C10.8122 10.9849 10.8858 10.9113 10.8858 10.8204V8.15954C10.8858 8.07049 10.8151 7.99762 10.7262 7.99501C9.16033 7.94779 7.65356 7.73833 6.24795 7.37214C6.23427 7.36857 6.22031 7.36685 6.20644 7.36685ZM2.72332 5.97094C2.66815 5.97094 2.61418 5.99865 2.58328 6.04875C1.69506 7.48054 1.16683 9.12673 1.05562 10.8095C1.05263 10.8549 1.06862 10.8996 1.09955 10.9329C1.13083 10.9662 1.17442 10.9849 1.21992 10.9849H4.39649C4.48519 10.9849 4.55806 10.9146 4.5609 10.8259C4.60334 9.5597 4.76675 8.32905 5.04658 7.16828C5.06625 7.08625 5.02086 7.00249 4.94143 6.97443C4.14797 6.6936 3.42984 6.36382 2.80723 5.99405C2.78082 5.97834 2.75191 5.97094 2.72332 5.97094ZM12.0806 1.20929C12.0437 1.20929 12.0073 1.22163 11.9779 1.24517C11.9388 1.27645 11.916 1.32386 11.916 1.37381V6.80028C11.916 6.84482 11.9341 6.88749 11.9661 6.91854C11.997 6.94836 12.0378 6.96492 12.0806 6.96492C12.0823 6.96492 12.084 6.96492 12.0858 6.96481C13.5534 6.91865 14.9576 6.72557 16.2587 6.3908C16.3032 6.37942 16.3408 6.34986 16.3626 6.3095C16.3844 6.26906 16.3883 6.22145 16.3735 6.17801C15.443 3.46371 13.8519 1.60784 12.1172 1.21335C12.1051 1.21063 12.093 1.20929 12.0806 1.20929ZM10.7213 1.20929C10.709 1.20929 10.6968 1.21063 10.6848 1.21335C8.95053 1.60772 7.35939 3.46348 6.4285 6.17725C6.41363 6.22079 6.41746 6.2684 6.43939 6.30888C6.46116 6.34921 6.49877 6.37877 6.54331 6.39015C7.84557 6.72503 9.24957 6.91838 10.7161 6.96477C10.7177 6.96488 10.7194 6.96488 10.7213 6.96488C10.764 6.96488 10.8051 6.94832 10.8358 6.9185C10.8679 6.88745 10.8858 6.84478 10.8858 6.80024V1.37381C10.8858 1.32383 10.8631 1.27645 10.824 1.24517C10.7946 1.22163 10.7583 1.20929 10.7213 1.20929ZM15.6357 2.05285C15.586 2.05285 15.5375 2.07535 15.5056 2.11667C15.4586 2.17716 15.4596 2.26192 15.5078 2.3213C16.283 3.27507 16.9151 4.47207 17.3865 5.8789C17.4006 5.92084 17.431 5.95549 17.4708 5.97477C17.4933 5.98566 17.5178 5.9911 17.5426 5.9911C17.5614 5.9911 17.5804 5.98788 17.5985 5.98133C18.2452 5.74715 18.8405 5.47364 19.3673 5.16808C19.4091 5.14382 19.4381 5.10238 19.4467 5.05489C19.4551 5.00728 19.4425 4.9584 19.4118 4.92103C18.4145 3.70831 17.1324 2.72173 15.7042 2.0678C15.6822 2.05768 15.6587 2.05285 15.6357 2.05285ZM7.16615 2.05285C7.14299 2.05285 7.11976 2.05768 7.09776 2.06784C5.66965 2.722 4.38744 3.7087 3.38974 4.92129C3.35907 4.95867 3.34646 5.00754 3.35486 5.05515C3.36364 5.10276 3.39269 5.14409 3.43451 5.16835C3.95692 5.47107 4.55224 5.74408 5.20406 5.97987C5.222 5.98627 5.24093 5.98964 5.25995 5.98964C5.28444 5.98964 5.30894 5.9842 5.33159 5.9732C5.37146 5.95392 5.40186 5.91938 5.41596 5.87733C5.88716 4.47103 6.51893 3.27465 7.29399 2.32134C7.34221 2.26196 7.34321 2.1772 7.29644 2.11671C7.2644 2.07535 7.2159 2.05285 7.16615 2.05285Z" fill="white"/>
</svg>
