<svg width="41" height="33" viewBox="0 0 41 33" fill="none" xmlns="http://www.w3.org/2000/svg">
<path d="M34.1583 5.04624C33.8451 4.78797 33.4521 4.6064 33.0227 4.5215C32.5932 4.4366 32.1439 4.45165 31.7241 4.56499L7.4973 11.275C7.04799 11.3932 6.65094 11.6193 6.35632 11.9248C6.06169 12.2303 5.88269 12.6014 5.84194 12.9913C5.80119 13.3812 5.9005 13.7724 6.12734 14.1154C6.35417 14.4585 6.69836 14.738 7.11642 14.9187L17.1681 19.0437L22.136 27.4175C22.3357 27.7453 22.6413 28.0204 23.0185 28.2123C23.3958 28.4041 23.8298 28.505 24.2722 28.5037H24.4378C24.9116 28.4748 25.3639 28.3282 25.736 28.0829C26.1081 27.8377 26.3828 27.5053 26.5243 27.1287L34.7214 7.06749C34.8677 6.72089 34.8925 6.34691 34.7928 5.98907C34.6932 5.63123 34.4731 5.30427 34.1583 5.04624ZM8.52399 13.1725L29.6707 7.31499L17.9299 17.0637L8.52399 13.1725ZM24.3881 26.3312L19.6852 18.5212L31.426 8.77249L24.3881 26.3312Z" fill="url(#paint0_linear_634_971)"/>
<defs>
<linearGradient id="paint0_linear_634_971" x1="20.3429" y1="4.46729" x2="20.3429" y2="28.5037" gradientUnits="userSpaceOnUse">
<stop stop-color="#8C292F"/>
<stop offset="1" stop-color="#43407E"/>
</linearGradient>
</defs>
</svg>
