<svg width="24" height="25" viewBox="0 0 24 25" fill="none" xmlns="http://www.w3.org/2000/svg">
<path d="M12 13.4893C13.6569 13.4893 15 12.1461 15 10.4893C15 8.8324 13.6569 7.48926 12 7.48926C10.3431 7.48926 9 8.8324 9 10.4893C9 12.1461 10.3431 13.4893 12 13.4893Z" stroke="white" stroke-width="2" stroke-linecap="round" stroke-linejoin="round"/>
<path d="M12 2.48926C9.87827 2.48926 7.84344 3.33211 6.34315 4.8324C4.84285 6.33269 4 8.36753 4 10.4893C4 12.3813 4.402 13.6193 5.5 14.9893L12 22.4893L18.5 14.9893C19.598 13.6193 20 12.3813 20 10.4893C20 8.36753 19.1571 6.33269 17.6569 4.8324C16.1566 3.33211 14.1217 2.48926 12 2.48926Z" stroke="white" stroke-width="2" stroke-linecap="round" stroke-linejoin="round"/>
</svg>
