<svg width="121" height="74" viewBox="0 0 121 74" fill="none" xmlns="http://www.w3.org/2000/svg">
<g clip-path="url(#clip0_634_2987)">
<path d="M121 57.765C119.078 57.765 117.156 57.765 115.235 57.765H84.8965C84.7612 57.765 84.6259 57.7574 84.4817 57.7536C84.4969 57.5686 84.6082 57.6066 84.6879 57.6066C85.1431 57.6066 85.5971 57.6066 86.0523 57.6066H86.4152C86.4409 57.2585 86.4481 56.9092 86.4367 56.5603C86.1425 56.5283 85.8457 56.5283 85.5515 56.5603C85.4731 56.5704 85.4048 56.687 85.3353 56.7541C85.2759 56.8241 85.1951 56.8724 85.1055 56.8917C85.0159 56.9109 84.9224 56.9 84.8396 56.8605C84.7532 56.8278 84.6809 56.7661 84.6348 56.686C84.5887 56.6059 84.5717 56.5122 84.5867 56.4209C84.5904 56.3445 84.6163 56.2708 84.6612 56.2089C84.7061 56.147 84.7682 56.0996 84.8396 56.0726C85.0053 55.9991 85.2013 56.0042 85.2835 56.1448C85.4567 56.4412 85.7172 56.3893 85.9739 56.3918H86.4101V54.9603H85.9751C85.6527 54.9603 85.3277 54.9603 85.0053 54.9603C84.8206 54.9603 84.6727 54.9844 84.5639 55.1567C84.509 55.2288 84.4322 55.2812 84.3452 55.3062C84.2476 55.3392 84.1411 55.3338 84.0472 55.2913C83.9534 55.2487 83.8791 55.1721 83.8394 55.0769C83.7969 54.984 83.788 54.8792 83.8144 54.7805C83.8407 54.6818 83.9005 54.5953 83.9835 54.536C84.1441 54.4283 84.435 54.4321 84.5374 54.5955C84.679 54.8197 84.8687 54.8185 85.0837 54.8147C85.4984 54.8071 85.9119 54.8147 86.3267 54.8058C86.3541 54.7992 86.3804 54.789 86.4051 54.7754V53.3895C86.1155 53.3895 85.8348 53.3731 85.5566 53.3984C85.4693 53.406 85.3821 53.515 85.3125 53.5935C85.2599 53.6558 85.1909 53.7022 85.1134 53.7273C85.0358 53.7523 84.9528 53.7551 84.8737 53.7354C84.7997 53.7195 84.7317 53.6826 84.6779 53.6292C84.6241 53.5758 84.5867 53.508 84.5703 53.4339C84.5424 53.3464 84.5442 53.2522 84.5753 53.1658C84.6064 53.0795 84.6651 53.0058 84.7422 52.9563C84.8902 52.8613 85.1633 52.8461 85.248 52.9816C85.4365 53.2869 85.7197 53.2413 85.9979 53.2451H86.4152C86.4455 52.9018 86.4502 52.5567 86.4291 52.2127C85.7741 52.157 85.1317 52.233 84.4982 52.1684L84.4893 52.1C84.5321 52.0717 84.579 52.0503 84.6284 52.0366C84.7193 52.0288 84.8105 52.0267 84.9016 52.0303H90.5742L114.815 52.0227H115.184C115.2 52.0095 115.215 51.9956 115.229 51.9809C115.236 51.9733 115.246 51.967 115.248 51.9581C115.256 51.898 115.262 51.8376 115.264 51.7769C115.264 36.4844 115.264 21.1923 115.264 5.90063C115.258 5.86401 115.247 5.82827 115.232 5.79422H5.75992C5.74884 5.80334 5.73867 5.81353 5.72957 5.82463C5.72325 5.83203 5.71851 5.84065 5.71566 5.84996C5.70748 5.88919 5.7024 5.92901 5.70049 5.96904C5.70049 21.2616 5.70049 36.5541 5.70049 51.8466C5.70441 51.8976 5.71116 51.9484 5.72072 51.9986C5.84717 52.0062 5.97362 52.0202 6.10007 52.0202C8.26494 52.0202 10.4294 52.0202 12.5934 52.0202H58.9206C59.0319 52.0202 59.1444 52.0202 59.2544 52.0202C59.3171 52.037 59.3775 52.0617 59.434 52.0936C59.2291 52.2634 59.0218 52.1785 58.8334 52.1924C58.6449 52.2064 58.4287 52.1924 58.2264 52.1924H57.5979V53.2185C57.8826 53.266 58.1731 53.266 58.4578 53.2185C58.5311 53.2071 58.5918 53.1071 58.6525 53.0424C58.7176 52.97 58.8038 52.9199 58.8989 52.8992C58.994 52.8786 59.0931 52.8883 59.1824 52.9272C59.26 52.9651 59.3238 53.0264 59.3648 53.1025C59.4059 53.1786 59.4221 53.2657 59.4112 53.3515C59.4115 53.434 59.385 53.5143 59.3358 53.5803C59.2865 53.6464 59.2171 53.6946 59.1381 53.7176C58.9775 53.7721 58.7828 53.7746 58.6955 53.6214C58.54 53.3503 58.3048 53.3794 58.0633 53.3794C57.9229 53.3794 57.7825 53.3794 57.6523 53.3794C57.5676 53.6074 57.5486 54.3143 57.6106 54.7792C57.6902 54.7881 57.7762 54.8033 57.8635 54.8045C58.258 54.8045 58.6525 54.8045 59.0471 54.8045C59.1255 54.8175 59.206 54.8072 59.2786 54.7747C59.3512 54.7423 59.4127 54.6893 59.4555 54.6221C59.523 54.5317 59.6234 54.4715 59.7349 54.4547C59.8463 54.4379 59.96 54.4657 60.0511 54.5322C60.1348 54.5928 60.194 54.6814 60.2182 54.7821C60.2423 54.8827 60.2297 54.9886 60.1826 55.0807C60.0562 55.3492 59.6844 55.4278 59.5036 55.1884C59.3417 54.973 59.1533 54.9515 58.9244 54.9578C58.5906 54.9667 58.2567 54.9578 57.9229 54.9578C57.8243 54.9578 57.7256 54.9679 57.5878 54.9755C57.5764 55.443 57.5777 55.8914 57.5878 56.3766C57.9001 56.3766 58.1809 56.3905 58.4591 56.369C58.5375 56.3627 58.6146 56.2588 58.6803 56.1891C58.747 56.105 58.8424 56.0485 58.9481 56.0305C59.0538 56.0125 59.1625 56.0342 59.2532 56.0916C59.3023 56.123 59.3446 56.1639 59.3776 56.212C59.4106 56.2601 59.4337 56.3143 59.4455 56.3714C59.4573 56.4286 59.4575 56.4875 59.4462 56.5447C59.4349 56.602 59.4123 56.6564 59.3796 56.7047C59.2418 56.9049 58.9016 56.9859 58.7727 56.7972C58.5552 56.4767 58.2605 56.5362 57.9659 56.5312H57.608V57.5724C57.7016 57.5724 57.7977 57.5927 57.8938 57.5927C58.3187 57.5927 58.7436 57.5927 59.1685 57.5927C59.2494 57.5927 59.3543 57.5534 59.4062 57.6991C59.3568 57.7213 59.305 57.7379 59.2519 57.7485C59.1507 57.7561 59.0496 57.7485 58.9484 57.7485H0.332571C0.221293 57.7485 0.111278 57.7485 0 57.7485V-0.0164795H121V57.765ZM59.0294 56.7376C59.1003 56.7351 59.1677 56.7057 59.2179 56.6554C59.2681 56.6051 59.2974 56.5376 59.3 56.4665C59.2996 56.3902 59.2691 56.317 59.2151 56.2631C59.161 56.2092 59.0879 56.179 59.0117 56.179C58.9409 56.1855 58.8747 56.2165 58.8243 56.2666C58.774 56.3168 58.7428 56.3831 58.736 56.4539C58.7383 56.5302 58.7703 56.6025 58.8251 56.6555C58.8799 56.7085 58.9532 56.738 59.0294 56.7376ZM59.2709 53.3173C59.2686 53.2464 59.2402 53.1789 59.1912 53.1277C59.1421 53.0764 59.076 53.0452 59.0053 53.0399C58.9676 53.0379 58.9299 53.0435 58.8944 53.0564C58.8589 53.0692 58.8264 53.0892 58.7988 53.115C58.7711 53.1407 58.749 53.1718 58.7336 53.2064C58.7183 53.241 58.7101 53.2783 58.7094 53.3161C58.7091 53.3871 58.7363 53.4556 58.7854 53.5069C58.8345 53.5582 58.9016 53.5883 58.9725 53.591C59.0101 53.5934 59.0479 53.5881 59.0836 53.5755C59.1192 53.563 59.1519 53.5433 59.1798 53.5178C59.2076 53.4922 59.2301 53.4613 59.2457 53.4268C59.2614 53.3924 59.2699 53.3552 59.2709 53.3173ZM59.7881 55.1643C59.8595 55.1675 59.9294 55.1429 59.9831 55.0957C60.0368 55.0485 60.0703 54.9823 60.0764 54.9109C60.0799 54.8344 60.0534 54.7596 60.0026 54.7023C59.9519 54.6451 59.8808 54.6099 59.8045 54.6044C59.7334 54.6057 59.6652 54.6327 59.6125 54.6804C59.5597 54.7282 59.526 54.7934 59.5175 54.8641C59.5138 54.902 59.518 54.9402 59.5299 54.9764C59.5418 55.0125 59.5611 55.0458 59.5866 55.0741C59.612 55.1023 59.6431 55.1249 59.6778 55.1405C59.7125 55.156 59.7501 55.1641 59.7881 55.1643ZM84.2339 54.6069C84.1961 54.6085 84.159 54.6177 84.1249 54.634C84.0907 54.6503 84.0602 54.6733 84.0352 54.7017C84.0102 54.7301 83.9911 54.7633 83.9792 54.7992C83.9673 54.8352 83.9627 54.8732 83.9658 54.9109C83.9676 54.9463 83.9763 54.9809 83.9916 55.0128C84.0068 55.0448 84.0282 55.0733 84.0546 55.0969C84.0809 55.1205 84.1117 55.1386 84.1451 55.1501C84.1785 55.1617 84.2138 55.1665 84.2491 55.1643C84.3202 55.1622 84.388 55.1334 84.439 55.0837C84.4901 55.034 84.5207 54.9669 84.5247 54.8957C84.5222 54.8195 84.4906 54.7472 84.4366 54.6935C84.3825 54.6398 84.31 54.6088 84.2339 54.6069ZM85.004 56.179C84.9663 56.1818 84.9295 56.1922 84.8959 56.2095C84.8623 56.2268 84.8324 56.2507 84.8081 56.2798C84.7839 56.3088 84.7656 56.3424 84.7545 56.3786C84.7434 56.4149 84.7397 56.4529 84.7435 56.4906C84.7506 56.5622 84.7854 56.6282 84.8405 56.6744C84.8955 56.7206 84.9665 56.7433 85.0381 56.7376C85.1087 56.7311 85.1746 56.6996 85.2239 56.6487C85.2733 56.5979 85.303 56.531 85.3075 56.4602C85.302 56.3835 85.2676 56.3117 85.2112 56.2595C85.1549 56.2072 85.0808 56.1785 85.004 56.179ZM84.9749 53.591C85.0129 53.5923 85.0509 53.586 85.0864 53.5723C85.122 53.5587 85.1544 53.538 85.1818 53.5115C85.2092 53.485 85.2309 53.4533 85.2458 53.4182C85.2607 53.3831 85.2683 53.3453 85.2683 53.3072C85.264 53.2361 85.2339 53.1691 85.1835 53.1189C85.1331 53.0687 85.0661 53.0388 84.9951 53.0348C84.924 53.0337 84.8549 53.0589 84.8013 53.1057C84.7476 53.1525 84.713 53.2175 84.7043 53.2882C84.7014 53.3261 84.7061 53.3641 84.7183 53.4001C84.7305 53.4361 84.7498 53.4692 84.775 53.4975C84.8003 53.5258 84.8311 53.5486 84.8654 53.5647C84.8998 53.5808 84.937 53.5897 84.9749 53.591Z" fill="white"/>
<path d="M81.3711 74C81.3711 72.9781 81.3711 71.955 81.3711 70.9306C81.3711 68.6107 81.3711 66.2912 81.3711 63.9722V63.5922H87.5749C87.5824 63.7125 87.5938 63.8291 87.5938 63.9456C87.5938 66.6295 87.5938 69.3138 87.5938 71.9985C87.5938 72.5559 87.5938 73.112 87.5938 73.6694C87.5938 73.7796 87.6077 73.8911 87.6141 74.0013L81.3711 74ZM85.544 65.6823C85.2557 65.6038 83.7054 65.6076 83.4588 65.6823C83.3931 66.1397 83.4196 71.7109 83.4879 71.9187C83.9216 71.9744 85.3189 71.9554 85.544 71.8845V65.6823Z" fill="white"/>
<path d="M8.31348 74C8.31348 73.8733 8.32233 73.7365 8.32233 73.606V63.6175C8.60811 63.5478 14.2732 63.5504 14.5489 63.6175V63.9659C14.5489 67.175 14.5489 70.3867 14.5489 73.601C14.5489 73.7276 14.559 73.8645 14.564 73.9949L8.31348 74ZM12.4864 71.9288V65.6329C11.7795 65.6329 11.0954 65.6177 10.4037 65.6418C10.3355 66.1181 10.3595 71.7109 10.4303 71.9288H12.4864Z" fill="white"/>
<path d="M89.6875 74C89.6976 73.8733 89.7153 73.7466 89.7153 73.6098C89.7153 70.41 89.7153 67.2097 89.7153 64.0089V63.596C89.8342 63.5846 89.9214 63.5694 90.0074 63.5694C91.6555 63.5694 93.3032 63.5694 94.9505 63.5694C95.0412 63.5692 95.1318 63.5773 95.2211 63.5934C95.4194 63.6169 95.6021 63.7131 95.7338 63.8635C95.8655 64.014 95.9369 64.2079 95.9343 64.408C95.9444 65.6139 95.9343 66.8148 95.9343 68.0234C95.9325 68.1408 95.897 68.2553 95.832 68.353C95.7669 68.4508 95.6751 68.5276 95.5675 68.5744C95.4297 68.6504 95.2805 68.7011 95.1022 68.7872C95.2754 68.8569 95.4158 68.9025 95.5461 68.9671C95.6688 69.019 95.7724 69.1079 95.8426 69.2213C95.9129 69.3348 95.9462 69.4673 95.9381 69.6005C95.9305 71.0687 95.9381 72.5369 95.9317 74.0051H93.8743C93.8827 73.9539 93.8878 73.9023 93.8895 73.8505C93.8895 72.5837 93.8895 71.317 93.8895 70.0502C93.8844 69.9687 93.8751 69.8875 93.8617 69.807C93.1725 69.807 92.4922 69.7943 91.7955 69.807C91.7879 69.9337 91.7778 70.0198 91.7778 70.1085C91.7778 71.3128 91.7778 72.517 91.7778 73.7213C91.7778 73.8113 91.7967 73.8999 91.8056 73.9899L89.6875 74ZM91.8043 65.6469V67.732H93.8731V65.6469H91.8043Z" fill="white"/>
<path d="M25.001 74C25.001 73.8733 25.0162 73.7378 25.0162 73.6073C25.0162 70.3981 25.0162 67.189 25.0162 63.9798V63.5998C25.1287 63.5884 25.2172 63.5744 25.3045 63.5744H30.245C30.3058 63.5732 30.3666 63.5757 30.4271 63.582C30.924 63.639 31.2364 63.9709 31.2402 64.4688C31.2465 65.633 31.2402 66.7971 31.2402 67.9613C31.2448 68.0945 31.2095 68.2261 31.1387 68.3391C31.0679 68.452 30.9649 68.541 30.8431 68.5947C30.7166 68.6656 30.5737 68.7214 30.3955 68.7986L30.6484 68.8936C31.1099 69.0621 31.2338 69.2382 31.2338 69.7259C31.2338 71.0315 31.2338 72.338 31.2338 73.6453C31.2338 73.772 31.2338 73.8873 31.2402 74.0089H29.1777V69.8665C28.8148 69.7842 27.2872 69.8006 27.0761 69.8817C27.067 69.9097 27.0611 69.9386 27.0584 69.9679C27.0584 71.3191 27.0584 72.6661 27.0584 74.0089L25.001 74ZM27.0874 65.6393V67.7206C27.4668 67.7903 28.9691 67.7713 29.179 67.6965V65.6368C28.4734 65.6241 27.7855 65.6241 27.0874 65.6355V65.6393Z" fill="white"/>
<path d="M35.4385 74C35.4385 73.8733 35.4524 73.7378 35.4537 73.606V63.5896C35.5801 63.5808 35.6787 63.5694 35.7774 63.5694C37.2834 63.5694 38.7895 63.5694 40.2955 63.5694C40.4774 63.5666 40.6588 63.5896 40.8342 63.6378C41.0675 63.7112 41.2729 63.8541 41.4231 64.0473C41.5733 64.2406 41.6612 64.4751 41.6751 64.7196C41.6814 64.8096 41.6751 64.9008 41.6751 64.992C41.6751 67.5154 41.6675 70.0375 41.6751 72.5597C41.6751 73.2513 41.4222 73.7302 40.7571 73.962C40.739 73.9708 40.7227 73.9828 40.709 73.9975L35.4385 74ZM37.5224 71.9162C37.5969 71.9291 37.672 71.9376 37.7475 71.9415C38.1711 71.9415 38.596 71.9478 39.0196 71.9415C39.4432 71.9352 39.6304 71.7376 39.6316 71.3195C39.6316 69.6305 39.6316 67.9414 39.6316 66.2524C39.6316 65.8344 39.4394 65.6431 39.0171 65.6355C38.5947 65.6279 38.1699 65.6355 37.745 65.6355C37.67 65.6415 37.5956 65.6534 37.5224 65.671V71.9162Z" fill="white"/>
<path d="M110.562 74C110.571 73.8733 110.588 73.739 110.588 73.6098C110.588 70.6228 110.588 67.6357 110.588 64.6487C110.588 64.4396 110.667 64.2383 110.809 64.0849C111.144 63.672 111.535 63.5364 112.074 63.5554C113.295 63.5972 114.518 63.5719 115.741 63.5656C115.83 63.5574 115.921 63.5707 116.004 63.6044C116.088 63.6381 116.162 63.6912 116.221 63.7594C116.374 63.9342 116.554 64.0849 116.707 64.2598C116.759 64.341 116.798 64.4305 116.821 64.5245C116.825 64.5543 116.825 64.5846 116.821 64.6145C116.821 67.7392 116.821 70.8677 116.821 74H114.754C114.763 73.9505 114.769 73.9006 114.772 73.8505C114.772 72.5837 114.772 71.317 114.772 70.0502C114.772 69.9818 114.756 69.9134 114.746 69.8247H112.672C112.664 69.9742 112.654 70.1034 112.654 70.2326C112.654 71.3567 112.654 72.4799 112.654 73.6022C112.654 73.7289 112.639 73.8645 112.631 73.9949L110.562 74ZM112.67 65.6469V67.732H114.746V65.6469H112.67Z" fill="white"/>
<path d="M47.9991 74C47.9991 73.8797 47.9814 73.7581 47.9814 73.6364C47.9814 70.4273 47.9814 67.2147 47.9814 63.9988V63.5871C48.1294 63.5795 48.2343 63.5694 48.3469 63.5694C49.9486 63.5694 51.5466 63.5694 53.1407 63.5694C53.2818 63.5673 53.4226 63.5814 53.5605 63.6112C53.73 63.6494 53.8829 63.7409 53.9967 63.8725C54.1105 64.004 54.1792 64.1686 54.1928 64.3421C54.2017 64.4435 54.2004 64.5448 54.2004 64.6461C54.2004 65.7001 54.2004 66.7557 54.2004 67.8131C54.2004 68.3312 54.0739 68.5035 53.5858 68.6998C53.5239 68.7239 53.4594 68.753 53.362 68.7961C53.5365 68.8658 53.6769 68.9101 53.8071 68.9747C53.9255 69.0218 54.0267 69.1041 54.097 69.2106C54.1674 69.317 54.2034 69.4425 54.2004 69.5701C54.1953 71.0497 54.1924 72.5276 54.1915 74.0038H52.1278C52.1392 73.9346 52.1468 73.8648 52.1506 73.7948C52.1506 72.5601 52.1506 71.3254 52.1506 70.0907C52.1506 70.0122 52.1379 69.9337 52.1291 69.8374H50.0565C50.0565 69.9476 50.0401 70.0363 50.0388 70.1249C50.0388 71.3394 50.0388 72.5538 50.0388 73.7682C50.0429 73.8484 50.0513 73.9283 50.0641 74.0076L47.9991 74ZM52.1304 65.6494H50.0768C50.0059 66.0029 50.0224 67.5293 50.0957 67.7358H52.1304V65.6494Z" fill="white"/>
<path d="M56.3115 74C56.3115 73.8733 56.3267 73.7378 56.3267 73.606V63.6226C56.615 63.5491 62.2801 63.5504 62.5343 63.6226V65.6241C61.8337 65.6241 61.1433 65.6241 60.4668 65.6241C59.7902 65.6241 59.0973 65.6241 58.3955 65.6241V67.7485H62.4913C62.5633 67.9904 62.5785 69.3801 62.5153 69.8044H60.4731H58.4309C58.3588 70.0793 58.3512 71.5931 58.417 71.9339C59.091 71.9491 59.7751 71.9339 60.4579 71.9402C61.1408 71.9465 61.8287 71.9402 62.5431 71.9402C62.5431 72.6458 62.5558 73.321 62.5621 73.9962L56.3115 74Z" fill="white"/>
<path d="M98.0625 74V71.9529C98.7732 71.9339 99.4535 71.9466 100.139 71.944C100.824 71.9415 101.511 71.944 102.233 71.944C102.275 71.2359 102.246 70.5506 102.253 69.8336C102.115 69.8235 102 69.8083 101.883 69.8083C100.75 69.8083 99.617 69.8083 98.4849 69.8083H98.1308C98.0625 69.5663 98.0372 64.199 98.0979 63.5935C98.7529 63.5402 99.413 63.5859 100.111 63.5656C100.131 64.2838 100.117 64.9679 100.12 65.652C100.122 66.336 100.12 67.0239 100.12 67.7333H102.244C102.262 67.0441 102.244 66.3588 102.252 65.6735C102.259 64.9882 102.252 64.3003 102.252 63.5922H104.298V63.9722C104.298 67.1949 104.298 70.4176 104.298 73.6403C104.298 73.7669 104.305 73.8822 104.311 74.0038L98.0625 74Z" fill="white"/>
<path d="M16.6872 74C16.6872 73.8733 16.6758 73.7581 16.6758 73.6365C16.6758 70.4273 16.6758 67.2147 16.6758 63.9988V63.5897H18.7091C18.7091 63.7163 18.7281 63.8265 18.7281 63.9431C18.7281 66.4665 18.7281 68.9899 18.7281 71.5133V71.9212H20.8184C20.8247 71.7946 20.8373 71.6679 20.8373 71.5412C20.8373 69.0178 20.8373 66.4944 20.8373 63.971V63.6264C21.1092 63.5516 22.5874 63.5466 22.877 63.6175C22.877 63.71 22.8909 63.8088 22.8909 63.9076C22.8909 67.1911 22.8909 70.4746 22.8909 73.7581C22.8909 73.8391 22.8808 73.9189 22.8757 74H16.6872Z" fill="white"/>
<path d="M0.000289199 63.5415L1.42162 63.5668C1.60118 63.5668 1.78201 63.5668 1.99318 63.5668C2.00456 63.71 2.021 63.8202 2.021 63.9469C2.021 65.0819 2.021 66.2165 2.021 67.3507V67.7396C2.73546 67.7751 3.41198 67.7497 4.13276 67.7573C4.15299 67.0416 4.14035 66.3563 4.14288 65.671C4.14541 64.9856 4.14288 64.3003 4.14288 63.5922H6.17244C6.18003 63.6935 6.19015 63.7733 6.19015 63.8531C6.19015 67.2354 6.19015 70.6186 6.19015 74.0025H0.00155496V71.9288L3.99746 71.9352C4.04051 71.9292 4.08286 71.9191 4.12391 71.9048V69.8576C4.09327 69.8395 4.06 69.8262 4.02528 69.8184C2.68319 69.8116 1.34111 69.807 -0.000976562 69.8044L0.000289199 63.5415Z" fill="white"/>
<path d="M64.6865 74V63.5896H70.8549C70.9257 63.843 70.9308 65.3162 70.8549 65.6241H66.7932C66.7174 65.8774 66.6996 71.5361 66.7692 71.9352C67.4445 71.9529 68.1286 71.9352 68.8127 71.9428C69.4968 71.9504 70.1822 71.9428 70.889 71.9428C70.8966 72.0694 70.9067 72.172 70.9067 72.2708C70.9067 72.7472 70.9067 73.2222 70.9067 73.6985C70.9106 73.799 70.9194 73.8992 70.9333 73.9987L64.6865 74Z" fill="white"/>
<path d="M75.1238 74C75.1238 71.3558 75.1238 68.7121 75.1238 66.0687V65.6545C74.4208 65.5886 73.7455 65.6545 73.0816 65.6127C73.0159 65.3796 72.9982 64.071 73.0488 63.6327C73.0563 63.6251 73.0627 63.6175 73.0703 63.6112C73.0778 63.6048 73.0842 63.5934 73.093 63.5922C73.1416 63.5802 73.1911 63.5726 73.241 63.5694H79.1248C79.161 63.576 79.1963 63.5871 79.2298 63.6023V65.5949C78.5646 65.6684 77.8894 65.5861 77.2065 65.6418C77.192 65.7218 77.1823 65.8026 77.1774 65.8838C77.1774 68.528 77.1774 71.1721 77.1774 73.8163C77.1806 73.8766 77.187 73.9366 77.1964 73.9962L75.1238 74Z" fill="white"/>
<path d="M43.8145 74V63.5681C44.5061 63.5681 45.1662 63.5681 45.8605 63.5681V73.601C45.8605 73.7277 45.8718 73.8645 45.8782 73.995L43.8145 74Z" fill="white"/>
<path d="M118.937 74C118.937 73.8797 118.947 73.7581 118.947 73.6365C118.947 71.8072 118.947 69.9772 118.947 68.1462V67.7662L120.999 67.7358V73.9988L118.937 74Z" fill="white"/>
<path d="M121 65.6089C120.327 65.6469 119.657 65.6215 118.967 65.6254V63.5909C119.069 63.5833 119.174 63.5706 119.28 63.5694C119.755 63.5694 120.228 63.5694 120.702 63.5694C120.8 63.5694 120.9 63.5529 121 63.544V65.6089Z" fill="white"/>
<path d="M106.437 74V71.9618H108.46C108.467 72.0542 108.479 72.1505 108.48 72.2468C108.48 72.7206 108.48 73.1956 108.48 73.6694C108.48 73.7796 108.494 73.8898 108.501 74H106.437Z" fill="white"/>
<path d="M57.6169 40.414V11.5973H63.3452V40.438H69.138C69.1671 34.6805 69.1684 28.9294 69.1785 23.1858C69.4314 23.1136 74.5818 23.1073 74.8764 23.1782V40.4342C75.5264 40.4887 76.1587 40.452 76.7897 40.4583C77.4207 40.4646 78.0833 40.4583 78.7307 40.4583H80.673V11.6303C80.9424 11.5606 86.0637 11.5517 86.3849 11.6138V46.1829H11.5426C11.4845 45.9662 11.4693 40.8624 11.5249 40.5128L11.5464 40.4925C11.5544 40.4867 11.5629 40.4816 11.5717 40.4773L11.6299 40.4634H11.6602H45.8834H45.9441C45.9542 40.464 45.9643 40.464 45.9744 40.4634H46.0035L46.0313 40.452C46.0971 40.2391 46.1224 32.337 46.0554 31.8037C45.2473 31.7669 44.433 31.7923 43.6186 31.7885C42.8043 31.7847 41.9596 31.7885 41.13 31.7885H11.5186C11.5098 31.6618 11.4959 31.5516 11.4959 31.4452C11.4959 28.6177 11.5005 25.7886 11.5098 22.9578C11.5165 19.3095 11.5224 15.6611 11.5275 12.0128V11.6062H51.7811C51.852 11.8355 51.8734 16.8785 51.8039 17.3282C49.8932 17.3282 47.9762 17.3282 46.0592 17.3282H17.3051C17.233 17.5816 17.1938 25.5306 17.2532 25.9778C17.2608 25.9854 17.2672 25.993 17.2747 25.9993C17.2816 26.0063 17.2898 26.0119 17.2988 26.0158C17.3178 26.022 17.3373 26.0271 17.3569 26.031H17.4176H17.5087H51.7015C51.7118 26.0318 51.722 26.034 51.7318 26.0373L51.8039 26.0525C51.8305 26.4326 51.8115 26.8215 51.8153 27.2116C51.8191 27.6018 51.8153 28.0224 51.8153 28.4277V40.3924C52.0543 40.4735 57.2186 40.4912 57.6169 40.414Z" fill="white"/>
<path d="M92.2241 34.6311V11.6303C92.4568 11.5657 109.076 11.5505 109.442 11.6138V46.1816H92.2519C92.1912 45.9688 92.1735 40.8852 92.238 40.4811C92.8627 40.433 93.4949 40.4659 94.1272 40.4608C94.7595 40.4558 95.4018 40.4608 96.0392 40.4608H103.672C103.746 40.2075 103.755 17.65 103.684 17.3422H97.936V34.6324L92.2241 34.6311Z" fill="white"/>
<path d="M71.0129 52.176L69.1326 52.1937V53.2071C69.448 53.2521 69.7681 53.2521 70.0835 53.2071C70.1455 53.2071 70.2036 53.1096 70.2568 53.0513C70.2948 53.0044 70.3418 52.9655 70.395 52.9371C70.4482 52.9086 70.5066 52.8911 70.5667 52.8855C70.6268 52.88 70.6874 52.8865 70.7449 52.9048C70.8024 52.923 70.8557 52.9526 70.9017 52.9918C70.9435 53.0324 70.9768 53.081 70.9995 53.1348C71.0222 53.1885 71.0339 53.2463 71.0339 53.3047C71.0339 53.363 71.0222 53.4208 70.9995 53.4746C70.9768 53.5283 70.9435 53.5769 70.9017 53.6176C70.8586 53.6595 70.8072 53.6917 70.7508 53.7121C70.6943 53.7326 70.6342 53.7407 70.5744 53.736C70.5146 53.7314 70.4564 53.714 70.4038 53.685C70.3512 53.6561 70.3054 53.6162 70.2694 53.5682C70.2226 53.4972 70.1566 53.4411 70.0791 53.4064C70.0016 53.3716 69.9159 53.3596 69.8319 53.3718C69.6409 53.3819 69.4525 53.3718 69.2565 53.3794C69.2275 53.3833 69.1991 53.3905 69.1718 53.4009C69.101 53.6125 69.0858 54.3789 69.1478 54.7678C69.1909 54.7819 69.2354 54.7917 69.2805 54.7969C69.7762 54.7969 70.2707 54.7906 70.7664 54.7969C70.9282 54.7969 70.9914 54.7019 71.0749 54.5981C71.1334 54.5273 71.2127 54.4769 71.3016 54.4542C71.3904 54.4314 71.4841 54.4374 71.5693 54.4714C71.6503 54.5012 71.7201 54.5555 71.769 54.6268C71.8179 54.698 71.8436 54.7827 71.8425 54.8691C71.8461 54.9559 71.8224 55.0416 71.7747 55.1141C71.7271 55.1866 71.6579 55.2423 71.5769 55.2732C71.4012 55.3378 71.214 55.3252 71.1103 55.1656C70.9687 54.9515 70.7815 54.9363 70.5602 54.9401C70.0974 54.9489 69.6333 54.9401 69.1288 54.9401C69.0984 55.4164 69.1174 55.8648 69.1174 56.3475C69.4437 56.3797 69.7724 56.3797 70.0987 56.3475C70.1746 56.3399 70.2428 56.2208 70.3111 56.1537C70.3704 56.0836 70.4509 56.0349 70.5405 56.015C70.63 55.9951 70.7235 56.0051 70.8068 56.0434C70.8872 56.0751 70.9553 56.1319 71.0008 56.2054C71.0464 56.2789 71.0671 56.3651 71.0597 56.4513C71.0644 56.5336 71.0422 56.6151 70.9966 56.6837C70.951 56.7522 70.8844 56.804 70.8068 56.8314C70.6336 56.9074 70.4275 56.8985 70.3389 56.744C70.1935 56.5033 69.9874 56.5096 69.7623 56.5121C69.5613 56.5121 69.3602 56.5121 69.1301 56.5121V57.5534C69.2249 57.561 69.321 57.5737 69.4171 57.5737C69.8622 57.5737 70.3023 57.5737 70.7524 57.5737C70.8435 57.5737 70.9586 57.5243 71.0306 57.6713C70.9835 57.6968 70.9334 57.7163 70.8814 57.7295C70.8107 57.7346 70.7397 57.7346 70.669 57.7295H61.7819C61.6668 57.7295 61.5505 57.7219 61.4253 57.7181C61.4379 57.5357 61.5518 57.5699 61.6289 57.5699C62.0829 57.5699 62.5381 57.5699 62.9933 57.5699H63.3461V56.5375C63.0705 56.5375 62.791 56.521 62.5141 56.5476C62.4281 56.5565 62.3497 56.6743 62.2725 56.7541C62.2101 56.8231 62.1265 56.8693 62.035 56.8856C61.9434 56.9019 61.8491 56.8873 61.7667 56.844C61.683 56.8061 61.6144 56.7412 61.5715 56.6598C61.5287 56.5784 61.5142 56.485 61.5303 56.3943C61.543 56.3015 61.5858 56.2155 61.652 56.1493C61.7182 56.0832 61.8043 56.0407 61.897 56.0282C61.9769 56.0099 62.0606 56.0175 62.1361 56.0498C62.2115 56.0821 62.2748 56.1375 62.3168 56.2081C62.4104 56.369 62.5431 56.3867 62.6962 56.3829C62.9061 56.3829 63.116 56.3829 63.3651 56.3829C63.3752 55.9016 63.3752 55.4531 63.3651 54.9895C63.2614 54.9781 63.183 54.9629 63.1122 54.9629C62.7328 54.9629 62.3433 54.9629 61.9589 54.9553C61.8749 54.9458 61.7898 54.9587 61.7123 54.9928C61.6348 55.0268 61.5676 55.0807 61.5176 55.1491C61.4792 55.203 61.4286 55.2469 61.3699 55.2772C61.3111 55.3075 61.246 55.3233 61.18 55.3233C61.1139 55.3233 61.0488 55.3075 60.9901 55.2772C60.9314 55.2469 60.8807 55.203 60.8424 55.1491C60.7757 55.0583 60.7468 54.9451 60.7616 54.8334C60.7765 54.7217 60.834 54.6201 60.922 54.5499C60.9649 54.5141 61.0146 54.4873 61.068 54.471C61.1215 54.4548 61.1776 54.4495 61.2332 54.4554C61.2887 54.4613 61.3425 54.4783 61.3914 54.5054C61.4402 54.5325 61.4832 54.5692 61.5176 54.6133C61.6441 54.802 61.792 54.8172 61.9804 54.8134C62.3345 54.8058 62.6886 54.8134 63.0426 54.8134C63.1413 54.8134 63.2399 54.8033 63.3575 54.7969V53.387C63.0591 53.387 62.7796 53.3794 62.5002 53.3933C62.4357 53.3933 62.3737 53.4782 62.3155 53.5289C62.255 53.595 62.1876 53.6545 62.1145 53.7062C62.0172 53.7518 61.9064 53.7593 61.8039 53.7272C61.7014 53.6951 61.6146 53.6257 61.5606 53.5327C61.5101 53.4441 61.492 53.3407 61.5093 53.2401C61.5266 53.1396 61.5783 53.0482 61.6554 52.9816C61.8186 52.855 62.117 52.8423 62.2308 53.0158C62.375 53.235 62.5684 53.2413 62.7821 53.2401C62.963 53.2401 63.1438 53.2401 63.3562 53.2401C63.3843 52.8907 63.3877 52.5398 63.3664 52.1899H62.3863C62.0702 52.1899 61.7541 52.2 61.4392 52.1785L61.4291 52.1C61.4695 52.0683 61.5147 52.0435 61.5631 52.0265C61.6435 52.0195 61.7243 52.0195 61.8047 52.0265C64.7552 52.0265 67.7058 52.0265 70.6563 52.0265C70.7828 52.0265 70.9168 51.9847 71.0167 52.0911L71.0129 52.176ZM66.1508 53.4339C66.1095 53.4205 66.0672 53.4104 66.0244 53.4035C65.8979 53.4035 65.7816 53.3971 65.6602 53.4035C65.4073 53.4035 65.3984 53.4035 65.3137 53.6442C65.0128 54.4887 64.7143 55.3362 64.4184 56.1866C64.3989 56.262 64.3841 56.3386 64.3742 56.4159C64.5525 56.4159 64.7017 56.4159 64.8509 56.4159C64.9013 56.421 64.9518 56.4065 64.9918 56.3754C65.0318 56.3442 65.0583 56.2989 65.0659 56.2487C65.1063 56.1055 65.1632 55.9687 65.2113 55.8332H66.2988C66.3759 56.0308 66.4467 56.2132 66.5163 56.3981C66.7386 56.4368 66.9666 56.4277 67.1852 56.3715C66.8375 55.3721 66.4961 54.4042 66.1508 53.4339ZM67.5507 56.3855H68.1551C68.1399 55.6381 68.1753 54.9173 68.1324 54.1952H67.5507V56.3855ZM68.1361 53.4111H67.5545V53.9203H68.1361V53.4111ZM71.6768 54.9021C71.6785 54.8642 71.6726 54.8265 71.6594 54.791C71.6463 54.7555 71.6261 54.723 71.6001 54.6954C71.5742 54.6679 71.543 54.6459 71.5084 54.6307C71.4737 54.6155 71.4364 54.6074 71.3986 54.6069C71.3305 54.615 71.2669 54.6455 71.218 54.6936C71.169 54.7418 71.1373 54.8048 71.128 54.8729C71.128 54.9493 71.1582 55.0226 71.212 55.0767C71.2658 55.1309 71.3388 55.1614 71.4151 55.1618C71.45 55.1621 71.4847 55.1555 71.5172 55.1424C71.5496 55.1292 71.5791 55.1098 71.604 55.0852C71.6289 55.0606 71.6487 55.0313 71.6623 54.999C71.6759 54.9667 71.683 54.9321 71.6831 54.897L71.6768 54.9021ZM61.199 54.6082C61.1279 54.6073 61.059 54.6326 61.0053 54.6793C60.9517 54.7261 60.9171 54.7909 60.9081 54.8615C60.9039 54.8993 60.9075 54.9375 60.9188 54.9737C60.9301 55.01 60.9487 55.0435 60.9735 55.0722C60.9983 55.1009 61.0288 55.1241 61.0631 55.1404C61.0973 55.1567 61.1345 55.1657 61.1724 55.1668C61.2443 55.1695 61.3146 55.145 61.3693 55.098C61.4239 55.051 61.4588 54.9851 61.467 54.9135C61.4714 54.838 61.4466 54.7637 61.3979 54.706C61.3492 54.6483 61.2803 54.6114 61.2053 54.6031L61.199 54.6082ZM70.5843 53.0399C70.5465 53.042 70.5096 53.0516 70.4756 53.068C70.4416 53.0844 70.4111 53.1074 70.386 53.1357C70.3608 53.1639 70.3415 53.1968 70.3291 53.2326C70.3167 53.2683 70.3114 53.3062 70.3137 53.3439C70.3219 53.4151 70.3564 53.4807 70.4105 53.5276C70.4646 53.5745 70.5343 53.5994 70.6058 53.5973C70.6435 53.596 70.6806 53.5871 70.7148 53.5711C70.749 53.5551 70.7796 53.5324 70.8047 53.5042C70.8299 53.476 70.8491 53.443 70.8612 53.4072C70.8733 53.3714 70.878 53.3335 70.8751 53.2958C70.868 53.2249 70.835 53.1591 70.7825 53.111C70.7301 53.0628 70.6617 53.0357 70.5906 53.0348L70.5843 53.0399ZM62.2093 53.3186C62.2085 53.2808 62.2002 53.2436 62.1849 53.2091C62.1696 53.1746 62.1476 53.1434 62.1202 53.1175C62.0928 53.0916 62.0605 53.0714 62.0252 53.0581C61.9899 53.0447 61.9524 53.0386 61.9147 53.0399C61.8467 53.047 61.7833 53.0775 61.7353 53.1263C61.6873 53.175 61.6577 53.239 61.6517 53.3072C61.6531 53.3792 61.6814 53.448 61.731 53.5001C61.7807 53.5522 61.848 53.5837 61.9197 53.5884C61.9574 53.5908 61.9952 53.5855 62.0308 53.5729C62.0663 53.5602 62.0989 53.5404 62.1266 53.5147C62.1543 53.4889 62.1765 53.4578 62.1918 53.4233C62.2071 53.3887 62.2152 53.3514 62.2156 53.3135L62.2093 53.3186ZM70.6399 56.1815C70.5636 56.1815 70.4902 56.2109 70.435 56.2638C70.3799 56.3167 70.3473 56.3889 70.344 56.4653C70.3495 56.5365 70.3808 56.6033 70.4321 56.653C70.4833 56.7027 70.5509 56.7319 70.6222 56.7351C70.6936 56.7371 70.7631 56.7122 70.817 56.6653C70.8708 56.6183 70.9051 56.5528 70.913 56.4817C70.9172 56.406 70.8917 56.3317 70.8418 56.2746C70.7919 56.2175 70.7217 56.1823 70.6462 56.1765L70.6399 56.1815ZM62.2561 56.4741C62.2537 56.3981 62.2228 56.3256 62.1697 56.2712C62.1165 56.2168 62.0449 56.1843 61.969 56.1803C61.8979 56.1818 61.83 56.2101 61.7788 56.2597C61.7277 56.3093 61.6972 56.3764 61.6934 56.4475C61.6898 56.5193 61.7142 56.5896 61.7614 56.6437C61.8086 56.6978 61.8748 56.7315 61.9463 56.7376C62.0216 56.741 62.0954 56.7158 62.1529 56.6669C62.2104 56.618 62.2472 56.5491 62.2561 56.4741Z" fill="white"/>
<path d="M74.8907 53.2414V52.1849C74.5606 52.1849 74.2495 52.1925 73.9385 52.1849C73.6274 52.1773 73.329 52.2267 73.0268 52.0899C73.0627 52.0628 73.1029 52.0418 73.1456 52.0278C73.2258 52.0195 73.3066 52.017 73.3871 52.0202C76.309 52.0202 79.2309 52.0202 82.1528 52.0202C82.2267 52.0063 82.3027 52.0106 82.3745 52.0326C82.4463 52.0547 82.5117 52.0939 82.5651 52.1469C82.1958 52.2216 81.8886 52.1811 81.5851 52.1887C81.2816 52.1963 80.9832 52.1887 80.662 52.1887V53.2211C80.959 53.2616 81.2602 53.2616 81.5572 53.2211C81.6281 53.2122 81.6837 53.1071 81.7507 53.0437C81.823 52.9653 81.9205 52.9149 82.0261 52.9012C82.1318 52.8876 82.2388 52.9116 82.3286 52.969C82.4073 53.0239 82.4651 53.1039 82.4926 53.1959C82.5202 53.2879 82.5158 53.3865 82.4804 53.4757C82.4458 53.572 82.3761 53.6517 82.2853 53.6987C82.1946 53.7457 82.0894 53.7565 81.991 53.7291C81.8782 53.6925 81.7791 53.6227 81.7065 53.5289C81.6724 53.4795 81.6259 53.44 81.5718 53.4142C81.5176 53.3884 81.4577 53.3773 81.3979 53.382C81.1665 53.382 80.9338 53.382 80.6594 53.382C80.6228 53.8494 80.643 54.2978 80.6468 54.7754C80.748 54.7856 80.8327 54.802 80.9187 54.8033C81.3334 54.8033 81.7482 54.8033 82.163 54.8033C82.2372 54.8137 82.3129 54.8018 82.3804 54.7691C82.448 54.7364 82.5043 54.6844 82.5423 54.6196C82.5946 54.5436 82.6712 54.4877 82.7595 54.4612C82.8478 54.4347 82.9425 54.4392 83.0279 54.4739C83.1106 54.4993 83.183 54.5507 83.2343 54.6205C83.2855 54.6904 83.3129 54.7749 83.3124 54.8616C83.319 54.9486 83.2982 55.0356 83.2528 55.1101C83.2074 55.1847 83.1398 55.2431 83.0595 55.2771C82.9823 55.3176 82.8935 55.3303 82.8081 55.313C82.7227 55.2957 82.6458 55.2495 82.5904 55.1821C82.4462 54.954 82.2464 54.954 82.0163 54.954C81.6723 54.9629 81.3284 54.954 80.9844 54.954C80.8858 54.954 80.7872 54.9629 80.6443 54.9705C80.6443 55.4354 80.6316 55.8839 80.6531 56.3728C80.9667 56.3728 81.2576 56.383 81.5459 56.3652C81.6167 56.3652 81.6938 56.2753 81.7469 56.2094C81.7933 56.1425 81.857 56.0897 81.9313 56.0566C82.0055 56.0236 82.0874 56.0116 82.168 56.0219C82.2594 56.032 82.3448 56.0726 82.4104 56.1371C82.476 56.2017 82.518 56.2865 82.5297 56.3779C82.5497 56.4678 82.5389 56.5619 82.499 56.6449C82.4591 56.7279 82.3924 56.7949 82.3096 56.8352C82.1326 56.9226 81.9202 56.9137 81.8139 56.7516C81.6723 56.5362 81.4877 56.5134 81.2664 56.5248C81.0767 56.5337 80.887 56.5248 80.667 56.5248V57.5674C80.772 57.5737 80.8782 57.5864 80.9844 57.5864C81.4194 57.5864 81.8544 57.5864 82.2881 57.5864C82.3665 57.5864 82.4766 57.5471 82.5006 57.6725C82.4981 57.6864 82.4943 57.7 82.4892 57.7131C82.482 57.7204 82.4727 57.7252 82.4626 57.727C82.4139 57.7367 82.3644 57.7426 82.3147 57.7447C79.2512 57.7447 76.1876 57.7447 73.1241 57.7447C73.0955 57.7401 73.0678 57.7312 73.0419 57.7181C73.0103 57.5788 73.1102 57.5915 73.1861 57.5915C73.5806 57.5915 73.9751 57.5915 74.3697 57.5915H74.8755C74.9311 57.2355 74.8945 56.8998 74.8995 56.5324C74.6466 56.5217 74.3934 56.5247 74.1408 56.5413C74.051 56.5514 73.9625 56.6515 73.8879 56.725C73.8316 56.7952 73.7544 56.8457 73.6675 56.8689C73.5806 56.8921 73.4886 56.887 73.4048 56.8542C73.3272 56.8286 73.2593 56.7798 73.2102 56.7143C73.1612 56.6489 73.1333 56.5699 73.1304 56.4881C73.1218 56.4018 73.1402 56.315 73.183 56.2397C73.2258 56.1643 73.291 56.1042 73.3694 56.0675C73.5313 55.9877 73.7248 55.9801 73.8183 56.1169C74.1029 56.535 74.4999 56.331 74.8983 56.3817C74.9122 55.9003 74.9084 55.4519 74.8983 54.9882C74.8145 54.9751 74.73 54.9662 74.6453 54.9616C74.2812 54.9616 73.917 54.9616 73.5528 54.954C73.4685 54.9447 73.3832 54.958 73.3056 54.9925C73.2281 55.027 73.1611 55.0815 73.1115 55.1504C73.0731 55.2043 73.0225 55.2482 72.9637 55.2785C72.905 55.3087 72.8399 55.3246 72.7738 55.3246C72.7078 55.3246 72.6427 55.3087 72.584 55.2785C72.5252 55.2482 72.4746 55.2043 72.4362 55.1504C72.3677 55.0588 72.3381 54.9438 72.3537 54.8304C72.3693 54.7171 72.429 54.6144 72.5197 54.5449C72.5627 54.509 72.6124 54.4822 72.666 54.4659C72.7196 54.4497 72.7758 54.4443 72.8315 54.4502C72.8871 54.4561 72.941 54.4732 72.99 54.5003C73.0389 54.5274 73.082 54.5641 73.1165 54.6082C73.243 54.797 73.3897 54.8122 73.5781 54.8084C73.9119 54.8008 74.2458 54.8084 74.5796 54.8084C74.6782 54.8084 74.7769 54.7982 74.8919 54.7919V53.3883C74.6137 53.3883 74.3532 53.3807 74.094 53.3883C74.0371 53.3883 73.9802 53.4592 73.9309 53.5036C73.8816 53.5479 73.8575 53.6024 73.812 53.6404C73.7253 53.7121 73.6143 53.7476 73.5022 53.7393C73.39 53.7311 73.2854 53.6797 73.2101 53.5961C73.1398 53.5153 73.1011 53.4118 73.1011 53.3047C73.1011 53.1976 73.1398 53.0941 73.2101 53.0133C73.3593 52.8537 73.6894 52.817 73.8082 52.9943C73.9751 53.2477 74.2028 53.2363 74.4405 53.2363L74.8907 53.2414ZM78.7272 56.383C78.4111 55.4962 78.1152 54.6538 77.8168 53.8177C77.6473 53.3389 77.7396 53.3972 77.206 53.3934C76.9329 53.3934 76.9291 53.3934 76.8393 53.6467C76.5417 54.4836 76.2467 55.3218 75.9541 56.1613C75.9326 56.2233 75.9225 56.288 75.8998 56.3855C76.0351 56.3931 76.1425 56.4032 76.25 56.4032C76.5421 56.4032 76.5421 56.4032 76.6294 56.1321C76.6635 56.0295 76.7015 55.9269 76.7381 55.8256H77.832L78.0406 56.3792L78.7272 56.383ZM79.0762 54.194V56.3652C79.2659 56.4315 79.4729 56.4284 79.6605 56.3564V54.194H79.0762ZM79.6617 53.9406V53.3997H79.0788V53.9406H79.6617ZM73.0672 54.8932C73.0669 54.8548 73.059 54.8168 73.044 54.7814C73.029 54.7461 73.0072 54.714 72.9799 54.6871C72.9525 54.6601 72.9201 54.6388 72.8846 54.6244C72.849 54.61 72.8109 54.6028 72.7726 54.6031C72.7014 54.609 72.6349 54.6409 72.5857 54.6928C72.5364 54.7447 72.508 54.8128 72.5058 54.8844C72.5057 54.9562 72.5335 55.0253 72.5833 55.077C72.633 55.1288 72.7009 55.1592 72.7726 55.1618C72.8101 55.1637 72.8476 55.158 72.8828 55.1451C72.9181 55.1322 72.9504 55.1123 72.9779 55.0867C73.0053 55.0611 73.0274 55.0302 73.0428 54.9959C73.0581 54.9616 73.0664 54.9245 73.0672 54.8869V54.8932ZM82.3564 53.3313C82.3596 53.2605 82.3362 53.191 82.2908 53.1366C82.2453 53.0822 82.1813 53.0468 82.1111 53.0374C82.0359 53.0312 81.9612 53.0539 81.9022 53.101C81.8432 53.1481 81.8044 53.216 81.7937 53.2908C81.7917 53.3623 81.8166 53.4319 81.8634 53.4859C81.9103 53.5398 81.9757 53.5742 82.0466 53.5821C82.0835 53.5867 82.1209 53.5838 82.1567 53.5735C82.1924 53.5633 82.2257 53.546 82.2546 53.5226C82.2836 53.4992 82.3075 53.4702 82.325 53.4373C82.3424 53.4044 82.3531 53.3684 82.3564 53.3313ZM82.3944 56.4716C82.3944 56.3953 82.3649 56.3219 82.3121 56.2669C82.2593 56.2118 82.1873 56.1794 82.1111 56.1765C82.0398 56.1776 81.9716 56.2056 81.92 56.2549C81.8685 56.3043 81.8374 56.3712 81.8329 56.4425C81.8308 56.4803 81.8365 56.5181 81.8496 56.5536C81.8626 56.5892 81.8828 56.6216 81.9089 56.649C81.935 56.6764 81.9663 56.6982 82.0011 56.713C82.0359 56.7278 82.0733 56.7354 82.1111 56.7351C82.1818 56.7331 82.2494 56.7056 82.3014 56.6577C82.3535 56.6097 82.3865 56.5446 82.3944 56.4742V56.4716ZM83.1531 54.8717C83.1506 54.8019 83.1221 54.7356 83.0732 54.6858C83.0242 54.6361 82.9584 54.6066 82.8888 54.6031C82.813 54.6067 82.7414 54.6393 82.6889 54.6943C82.6364 54.7492 82.607 54.8223 82.6068 54.8983C82.6095 54.9361 82.6197 54.973 82.6368 55.0068C82.6539 55.0406 82.6776 55.0707 82.7065 55.0952C82.7353 55.1198 82.7688 55.1383 82.8048 55.1497C82.8409 55.1612 82.8789 55.1653 82.9166 55.1618C82.9869 55.155 83.0517 55.1208 83.0969 55.0665C83.1421 55.0122 83.1641 54.9422 83.1581 54.8717H83.1531ZM73.8082 53.3072C73.8073 53.2695 73.7988 53.2324 73.7833 53.198C73.7679 53.1636 73.7457 53.1326 73.7182 53.1069C73.6906 53.0812 73.6582 53.0613 73.6229 53.0482C73.5875 53.0352 73.5499 53.0294 73.5123 53.0311C73.4417 53.0377 73.3757 53.0697 73.3267 53.1211C73.2777 53.1726 73.2489 53.24 73.2455 53.311C73.2482 53.3827 73.2774 53.4507 73.3274 53.502C73.3774 53.5533 73.4447 53.5841 73.5161 53.5885C73.5541 53.5907 73.5922 53.5851 73.6279 53.5719C73.6636 53.5588 73.6962 53.5383 73.7236 53.5119C73.7511 53.4855 73.7728 53.4537 73.7873 53.4184C73.8019 53.3832 73.809 53.3453 73.8082 53.3072ZM73.5553 56.7275C73.6312 56.7274 73.7042 56.6984 73.7596 56.6464C73.815 56.5945 73.8486 56.5234 73.8538 56.4476C73.8472 56.3767 73.8165 56.3103 73.7667 56.2595C73.7169 56.2088 73.6512 56.1767 73.5806 56.1689C73.5428 56.1677 73.5052 56.1741 73.47 56.1878C73.4347 56.2014 73.4026 56.2221 73.3755 56.2484C73.3483 56.2748 73.3268 56.3063 73.3121 56.3412C73.2973 56.376 73.2898 56.4135 73.2898 56.4514C73.2887 56.5233 73.3152 56.5929 73.364 56.6457C73.4127 56.6986 73.4799 56.7306 73.5515 56.7351L73.5553 56.7275Z" fill="white"/>
<path d="M65.7925 54.2345C65.8987 54.5563 66.0049 54.878 66.1225 55.2314H65.4043C65.5168 54.8869 65.6218 54.5639 65.728 54.2408L65.7925 54.2345Z" fill="white"/>
<path d="M77.653 55.2365H76.9512C77.0327 54.8853 77.1559 54.5451 77.3179 54.2231C77.4266 54.5512 77.5341 54.8793 77.653 55.2365Z" fill="white"/>
</g>
<defs>
<clipPath id="clip0_634_2987">
<rect width="121" height="74" fill="white"/>
</clipPath>
</defs>
</svg>
