<svg width="24" height="25" viewBox="0 0 24 25" fill="none" xmlns="http://www.w3.org/2000/svg">
<path d="M3.83338 4.48926H8.32338L9.77038 8.10726L7.44538 9.65726C7.30846 9.74861 7.19621 9.87234 7.11858 10.0175C7.04096 10.1626 7.00035 10.3247 7.00038 10.4893C7.00338 10.5833 7.00038 10.4903 7.00038 10.4903V10.5113C7.00088 10.556 7.00288 10.6007 7.00638 10.6453C7.01171 10.7279 7.02338 10.8379 7.04138 10.9753C7.08038 11.2453 7.15538 11.6173 7.30138 12.0553C7.59538 12.9353 8.17138 14.0743 9.29338 15.1963C10.4154 16.3183 11.5544 16.8943 12.4334 17.1883C12.8724 17.3343 13.2434 17.4083 13.5154 17.4483C13.6688 17.4706 13.8234 17.4839 13.9784 17.4883L13.9914 17.4893H13.9994C13.9994 17.4893 14.1114 17.4833 14.0004 17.4893C14.186 17.4892 14.368 17.4374 14.5259 17.3397C14.6838 17.242 14.8114 17.1023 14.8944 16.9363L15.5644 15.5963L20.0004 16.3363V20.6563C17.8894 20.9613 12.1874 21.2623 7.70738 16.7823C3.22738 12.3023 3.52738 6.59926 3.83338 4.48926ZM9.07338 10.9753L10.8804 9.77126C11.2621 9.51663 11.5447 9.13847 11.6807 8.70022C11.8167 8.26197 11.7979 7.79028 11.6274 7.36426L10.1804 3.74626C10.0319 3.37516 9.77562 3.05707 9.44462 2.83302C9.11362 2.60897 8.72308 2.48923 8.32338 2.48926H3.78138C2.87238 2.48926 2.01738 3.12026 1.86838 4.10626C1.52838 6.34826 1.06738 12.9703 6.29338 18.1963C11.5194 23.4223 18.1414 22.9603 20.3834 22.6213C21.3694 22.4713 22.0004 21.6173 22.0004 20.7083V16.3363C22.0004 15.8628 21.8325 15.4047 21.5266 15.0434C21.2206 14.6822 20.7964 14.4411 20.3294 14.3633L15.8934 13.6243C15.4715 13.5538 15.0381 13.6205 14.6569 13.8146C14.2757 14.0086 13.9667 14.3197 13.7754 14.7023L13.4294 15.3953C13.3071 15.3648 13.186 15.3298 13.0664 15.2903C12.4464 15.0843 11.5854 14.6603 10.7074 13.7823C9.82938 12.9043 9.40538 12.0433 9.19938 11.4223C9.15081 11.2753 9.1091 11.1261 9.07438 10.9753H9.07338Z" fill="white"/>
</svg>
